<svg width="90" height="90" viewBox="0 0 90 90" fill="none" xmlns="http://www.w3.org/2000/svg">
<rect width="90" height="90" rx="20" fill="#15223D"/>
<g clip-path="url(#clip0)">
<path d="M65.0001 32.5C65.0001 32.942 64.8245 33.366 64.5119 33.6785C64.1993 33.9911 63.7754 34.1667 63.3334 34.1667C62.8914 34.1667 62.4674 33.9911 62.1549 33.6785C61.8423 33.366 61.6667 32.942 61.6667 32.5C61.6482 31.9175 61.5118 31.3447 61.2659 30.8163C61.0199 30.2878 60.6695 29.8147 60.2358 29.4253C59.8021 29.036 59.294 28.7385 58.7422 28.5508C58.1903 28.3631 57.6062 28.2892 57.0251 28.3333C56.583 28.3333 56.1591 28.1578 55.8466 27.8452C55.534 27.5326 55.3584 27.1087 55.3584 26.6667C55.3584 26.2247 55.534 25.8007 55.8466 25.4882C56.1591 25.1756 56.583 25 57.0251 25C58.0436 24.9588 59.0602 25.1211 60.0153 25.4775C60.9703 25.8339 61.8448 26.3771 62.5874 27.0755C63.33 27.7739 63.9258 28.6133 64.3401 29.5447C64.7544 30.4762 64.9787 31.4808 65.0001 32.5V32.5Z" fill="white"/>
<path d="M28.3333 32.5C28.3519 31.9175 28.4883 31.3447 28.7342 30.8163C28.9801 30.2878 29.3305 29.8147 29.7643 29.4253C30.198 29.036 30.7061 28.7385 31.2579 28.5508C31.8097 28.3631 32.3938 28.2892 32.975 28.3333C33.417 28.3333 33.841 28.1578 34.1535 27.8452C34.4661 27.5326 34.6417 27.1087 34.6417 26.6667C34.6417 26.2247 34.4661 25.8007 34.1535 25.4882C33.841 25.1756 33.417 25 32.975 25C31.9564 24.9588 30.9399 25.1211 29.9848 25.4775C29.0297 25.8339 28.1553 26.3771 27.4127 27.0755C26.6701 27.7739 26.0742 28.6133 25.66 29.5447C25.2457 30.4762 25.0213 31.4808 25 32.5C25 32.942 25.1756 33.366 25.4882 33.6785C25.8007 33.9911 26.2246 34.1667 26.6667 34.1667C27.1087 34.1667 27.5326 33.9911 27.8452 33.6785C28.1577 33.366 28.3333 32.942 28.3333 32.5Z" fill="white"/>
<path d="M58.8651 58.6267C61.0708 56.0803 62.5307 52.9744 63.0841 49.6513C63.6375 46.3283 63.2629 42.9169 62.0014 39.7931C60.74 36.6694 58.6408 33.9544 55.9351 31.9474C53.2294 29.9403 50.0221 28.7191 46.6668 28.4183V26.6667C46.6668 26.2246 46.4912 25.8007 46.1786 25.4882C45.866 25.1756 45.4421 25 45.0001 25C44.5581 25 44.1341 25.1756 43.8216 25.4882C43.509 25.8007 43.3334 26.2246 43.3334 26.6667V28.4183C39.978 28.7191 36.7708 29.9403 34.0651 31.9474C31.3593 33.9544 29.2601 36.6694 27.9987 39.7931C26.7373 42.9169 26.3627 46.3283 26.9161 49.6513C27.4695 52.9744 28.9294 56.0803 31.1351 58.6267C30.264 59.0576 29.5361 59.7311 29.0391 60.5662C28.542 61.4012 28.2969 62.3622 28.3334 63.3333C28.3334 63.7754 28.509 64.1993 28.8216 64.5118C29.1341 64.8244 29.5581 65 30.0001 65C30.4421 65 30.866 64.8244 31.1786 64.5118C31.4912 64.1993 31.6668 63.7754 31.6668 63.3333C31.6529 62.8196 31.8373 62.3203 32.1818 61.9389C32.5262 61.5575 33.0043 61.3234 33.5168 61.285C33.6314 61.2632 33.7432 61.2285 33.8501 61.1817C37.0426 63.6578 40.9681 65.0017 45.0084 65.0017C49.0487 65.0017 52.9742 63.6578 56.1668 61.1817C56.2643 61.2266 56.3659 61.2623 56.4701 61.2883C56.9844 61.3234 57.4652 61.5557 57.8124 61.9367C58.1596 62.3177 58.3462 62.818 58.3334 63.3333C58.3334 63.7754 58.509 64.1993 58.8216 64.5118C59.1341 64.8244 59.5581 65 60.0001 65C60.4421 65 60.866 64.8244 61.1786 64.5118C61.4912 64.1993 61.6668 63.7754 61.6668 63.3333C61.7032 62.3622 61.4582 61.4012 60.9611 60.5662C60.464 59.7311 59.7361 59.0576 58.8651 58.6267V58.6267ZM51.1784 51.1783C50.8659 51.4908 50.442 51.6663 50.0001 51.6663C49.5581 51.6663 49.1343 51.4908 48.8218 51.1783L43.8218 46.1783C43.5092 45.8658 43.3335 45.442 43.3334 45V36.6667C43.3334 36.2246 43.509 35.8007 43.8216 35.4882C44.1341 35.1756 44.5581 35 45.0001 35C45.4421 35 45.866 35.1756 46.1786 35.4882C46.4912 35.8007 46.6668 36.2246 46.6668 36.6667V44.31L51.1784 48.8217C51.4909 49.1342 51.6664 49.5581 51.6664 50C51.6664 50.4419 51.4909 50.8658 51.1784 51.1783V51.1783Z" fill="white"/>
</g>
<defs>
<clipPath id="clip0">
<rect width="40" height="40" fill="white" transform="translate(25 25)"/>
</clipPath>
</defs>
</svg>
