<svg width="21" height="19" viewBox="0 0 21 19" fill="none" xmlns="http://www.w3.org/2000/svg">
<path d="M10.6254 14.1578C10.4358 14.1578 10.2816 13.995 10.2816 13.7948V11.2305C10.2816 9.20596 9.01503 7.48799 7.27458 6.91374C7.32695 6.75988 7.35458 6.59654 7.35458 6.43034C7.35458 5.64166 6.74694 5 6.00002 5C5.25311 5 4.64549 5.64166 4.64549 6.43037C4.64549 6.59786 4.67258 6.76096 4.72456 6.91407C2.98463 7.48859 1.7184 9.20631 1.7184 11.2305V13.7948C1.7184 13.995 1.56419 14.1578 1.37466 14.1578C0.61665 14.1578 0 14.809 0 15.6094C0 16.4098 0.61665 17.0611 1.37466 17.0611H4.58148C4.55051 17.1872 4.5343 17.3183 4.5343 17.4522C4.5343 18.3056 5.19184 19 6.00002 19C6.80821 19 7.46576 18.3056 7.46576 17.4522C7.46576 17.3184 7.44956 17.1873 7.41852 17.0611H10.6253C11.3833 17.0611 12 16.4098 12 15.6094C12.0001 14.809 11.3834 14.1578 10.6254 14.1578ZM5.42632 6.43037C5.42632 6.09631 5.68369 5.82455 6.00002 5.82455C6.31636 5.82455 6.57373 6.09631 6.57373 6.43037C6.57373 6.53989 6.54567 6.64651 6.49348 6.73941C6.33152 6.7197 6.16691 6.7092 6.00002 6.7092C5.83332 6.7092 5.6689 6.71967 5.50709 6.73935C5.45482 6.64673 5.42632 6.54096 5.42632 6.43037ZM6.68495 17.4522C6.68495 17.851 6.37769 18.1754 6.00005 18.1754C5.62241 18.1754 5.31515 17.851 5.31515 17.4522C5.31515 17.3113 5.35321 17.1766 5.42387 17.061H6.57621C6.64689 17.1766 6.68495 17.3113 6.68495 17.4522ZM10.6254 16.2365H1.37466C1.04723 16.2365 0.780834 15.9552 0.780834 15.6094C0.780834 15.2636 1.04723 14.9823 1.37466 14.9823C1.99474 14.9823 2.49924 14.4496 2.49924 13.7948V11.2305C2.49924 9.19208 4.06968 7.53372 6.00002 7.53372C7.93037 7.53372 9.50083 9.19208 9.50083 11.2305V13.7948C9.50083 14.4496 10.0053 14.9823 10.6254 14.9823C10.9528 14.9823 11.2192 15.2636 11.2192 15.6094C11.2192 15.9552 10.9528 16.2365 10.6254 16.2365Z" fill="black"/>
<path d="M14 15C17.866 15 21 11.6421 21 7.5C21 3.35786 17.866 0 14 0C10.134 0 7 3.35786 7 7.5C7 11.6421 10.134 15 14 15Z" fill="#1ABC9C"/>
</svg>
