<svg width="21" height="19" viewBox="0 0 21 19" fill="none" xmlns="http://www.w3.org/2000/svg">
<path d="M14.6892 12.2986C14.4271 12.2986 14.2139 12.0799 14.2139 11.8111V8.36733C14.2139 5.64845 12.4629 3.34128 10.0568 2.57009C10.1292 2.36346 10.1674 2.1441 10.1674 1.9209C10.1674 0.861729 9.32737 0 8.29478 0C7.2622 0 6.42219 0.861729 6.42219 1.92093C6.42219 2.14587 6.45965 2.3649 6.53151 2.57053C4.12613 3.34209 2.37562 5.64893 2.37562 8.36737V11.8111C2.37562 12.0799 2.16243 12.2986 1.90041 12.2986C0.852493 12.2986 0 13.1732 0 14.2481C0 15.323 0.852493 16.1976 1.90041 16.1976H6.33371C6.29089 16.367 6.26848 16.5431 6.26848 16.7229C6.26848 17.869 7.1775 18.8015 8.29478 18.8015C9.41207 18.8015 10.3211 17.869 10.3211 16.7229C10.3211 16.5432 10.2987 16.3671 10.2558 16.1976H14.6891C15.737 16.1976 16.5895 15.323 16.5895 14.2481C16.5896 13.1731 15.7371 12.2986 14.6892 12.2986ZM7.50166 1.92093C7.50166 1.47231 7.85746 1.10734 8.29478 1.10734C8.73211 1.10734 9.08791 1.47231 9.08791 1.92093C9.08791 2.06802 9.04912 2.2112 8.97697 2.33596C8.75306 2.3095 8.5255 2.2954 8.29478 2.2954C8.06432 2.2954 7.83702 2.30946 7.61332 2.33589C7.54106 2.2115 7.50166 2.06946 7.50166 1.92093ZM9.24166 16.7228C9.24166 17.2584 8.81689 17.6941 8.29482 17.6941C7.77275 17.6941 7.34798 17.2584 7.34798 16.7228C7.34798 16.5336 7.40059 16.3528 7.49828 16.1975H9.09133C9.18905 16.3528 9.24166 16.5336 9.24166 16.7228ZM14.6892 15.0902H1.90041C1.44775 15.0902 1.07947 14.7124 1.07947 14.2481C1.07947 13.7837 1.44775 13.4059 1.90041 13.4059C2.75765 13.4059 3.45509 12.6905 3.45509 11.8111V8.36733C3.45509 5.62981 5.62616 3.4027 8.29478 3.4027C10.9634 3.4027 13.1345 5.62981 13.1345 8.36733V11.8111C13.1345 12.6905 13.8319 13.4059 14.6892 13.4059C15.1418 13.4059 15.5101 13.7837 15.5101 14.2481C15.5101 14.7124 15.1418 15.0902 14.6892 15.0902Z" fill="black"/>
<circle cx="14.7778" cy="6.22222" r="6.22222" fill="#1ABC9C"/>
</svg>
