<svg width="16" height="16" viewBox="0 0 16 16" fill="none" xmlns="http://www.w3.org/2000/svg">
<path d="M8 16C12.4183 16 16 12.4183 16 8C16 3.58172 12.4183 0 8 0C3.58172 0 0 3.58172 0 8C0 12.4183 3.58172 16 8 16Z" fill="#7AAFFF"/>
<path d="M8 4C8.55228 4 9 3.55228 9 3C9 2.44772 8.55228 2 8 2C7.44772 2 7 2.44772 7 3C7 3.55228 7.44772 4 8 4Z" fill="white"/>
<path d="M9 6C9 5.44772 8.55228 5 8 5C7.44772 5 7 5.44772 7 6V13C7 13.5523 7.44772 14 8 14C8.55228 14 9 13.5523 9 13V6Z" fill="white"/>
</svg>
