<svg width="50" height="50" viewBox="0 0 50 50" fill="none" xmlns="http://www.w3.org/2000/svg">
<path d="M0.935791 15.1748H49.0641V43.1336C49.0641 44.7065 48.4393 46.2149 47.3271 47.3271C46.2149 48.4393 44.7065 49.0641 43.1336 49.0641H6.86627C5.29341 49.0641 3.78497 48.4393 2.67279 47.3271C1.56061 46.2149 0.935791 44.7065 0.935791 43.1336V15.1748Z" fill="white"/>
<path d="M49.0641 11.4224V15.1764H0.935791V11.4224C0.937207 9.85 1.56248 8.34238 2.67435 7.2305C3.78623 6.11863 5.29384 5.49336 6.86627 5.49194H6.96788V7.55611C6.96788 8.21703 7.23042 8.85087 7.69776 9.31821C8.1651 9.78555 8.79894 10.0481 9.45985 10.0481C10.1208 10.0481 10.7546 9.78555 11.2219 9.31821C11.6893 8.85087 11.9518 8.21703 11.9518 7.55611V5.49194H17.3315V7.55611C17.3315 8.21632 17.5938 8.84948 18.0606 9.31632C18.5274 9.78315 19.1606 10.0454 19.8208 10.0454C20.481 10.0454 21.1142 9.78315 21.581 9.31632C22.0479 8.84948 22.3101 8.21632 22.3101 7.55611V5.49194H27.6898V7.55611C27.6898 8.21632 27.9521 8.84948 28.4189 9.31632C28.8857 9.78315 29.5189 10.0454 30.1791 10.0454C30.8393 10.0454 31.4725 9.78315 31.9393 9.31632C32.4061 8.84948 32.6684 8.21632 32.6684 7.55611V5.49194H38.0481V7.55611C38.0481 8.21703 38.3106 8.85087 38.778 9.31821C39.2453 9.78555 39.8791 10.0481 40.5401 10.0481C41.201 10.0481 41.8348 9.78555 42.3022 9.31821C42.7695 8.85087 43.032 8.21703 43.032 7.55611V5.49194H43.1336C44.7061 5.49336 46.2137 6.11863 47.3256 7.2305C48.4374 8.34238 49.0627 9.85 49.0641 11.4224Z" fill="#1ABC9C"/>
<path d="M11.9517 3.42777V7.55611C11.9517 8.21703 11.6892 8.85087 11.2218 9.31821C10.7545 9.78554 10.1207 10.0481 9.45975 10.0481C8.79884 10.0481 8.16499 9.78554 7.69766 9.31821C7.23032 8.85087 6.96777 8.21703 6.96777 7.55611V3.42777C6.96848 2.76707 7.23126 2.13364 7.69844 1.66646C8.16562 1.19928 8.79905 0.936499 9.45975 0.935791C10.1199 0.938326 10.7523 1.20169 11.219 1.66848C11.6858 2.13526 11.9492 2.76764 11.9517 3.42777Z" fill="#B8C4EE"/>
<path d="M22.31 3.42778V7.55613C22.31 8.21633 22.0478 8.8495 21.5809 9.31633C21.1141 9.78317 20.4809 10.0454 19.8207 10.0454C19.1605 10.0454 18.5274 9.78317 18.0605 9.31633C17.5937 8.8495 17.3314 8.21633 17.3314 7.55613V3.42778C17.3314 2.76758 17.5937 2.13441 18.0605 1.66758C18.5274 1.20074 19.1605 0.938477 19.8207 0.938477C20.4809 0.938477 21.1141 1.20074 21.5809 1.66758C22.0478 2.13441 22.31 2.76758 22.31 3.42778Z" fill="#B8C4EE"/>
<path d="M32.6683 3.42778V7.55612C32.6683 8.21633 32.406 8.84949 31.9392 9.31633C31.4724 9.78316 30.8392 10.0454 30.179 10.0454C29.5188 10.0454 28.8856 9.78316 28.4188 9.31633C27.952 8.84949 27.6897 8.21633 27.6897 7.55612V3.42778C27.6896 3.10049 27.7539 2.77638 27.8791 2.47398C28.0043 2.17157 28.1878 1.8968 28.4193 1.66537C28.6507 1.43394 28.9255 1.25039 29.2279 1.12521C29.5303 1.00002 29.8544 0.935663 30.1817 0.935804C30.5089 0.934754 30.8331 0.999011 31.1352 1.12481C31.4373 1.25061 31.7113 1.43542 31.941 1.66842C32.1719 1.89952 32.355 2.17385 32.4797 2.47573C32.6045 2.77761 32.6686 3.10113 32.6683 3.42778Z" fill="#B8C4EE"/>
<path d="M43.0319 3.42777V7.55611C43.0319 8.21703 42.7694 8.85087 42.302 9.31821C41.8347 9.78554 41.2009 10.0481 40.5399 10.0481C39.879 10.0481 39.2452 9.78554 38.7779 9.31821C38.3105 8.85087 38.048 8.21703 38.048 7.55611V3.42777C38.0487 2.76707 38.3115 2.13364 38.7786 1.66646C39.2458 1.19927 39.8793 0.936499 40.5399 0.935791C41.2001 0.938326 41.8324 1.20169 42.2992 1.66848C42.766 2.13526 43.0294 2.76764 43.0319 3.42777Z" fill="#B8C4EE"/>
<path d="M13.0663 21.73H9.28764C8.43411 21.73 7.74219 22.4219 7.74219 23.2754V27.054C7.74219 27.9076 8.43411 28.5995 9.28764 28.5995H13.0663C13.9198 28.5995 14.6117 27.9076 14.6117 27.054V23.2754C14.6117 22.4219 13.9198 21.73 13.0663 21.73Z" fill="#7E9AFB"/>
<path d="M26.8893 21.73H23.1106C22.2571 21.73 21.5652 22.4219 21.5652 23.2754V27.054C21.5652 27.9076 22.2571 28.5995 23.1106 28.5995H26.8893C27.7428 28.5995 28.4347 27.9076 28.4347 27.054V23.2754C28.4347 22.4219 27.7428 21.73 26.8893 21.73Z" fill="#7E9AFB"/>
<path d="M37.7272 28.5296C37.6043 28.5296 37.4826 28.5054 37.3691 28.4583C37.2556 28.4113 37.1525 28.3422 37.0657 28.2552L34.3956 25.5852C34.2251 25.4087 34.1308 25.1723 34.1328 24.927C34.1349 24.6816 34.2333 24.4469 34.4068 24.2733C34.5803 24.0998 34.815 24.0013 35.0603 23.9991C35.3057 23.9969 35.5421 24.0912 35.7186 24.2616L37.7272 26.2702L41.9229 22.0745C42.0981 21.8987 42.336 21.7997 42.5842 21.7993C42.7071 21.7991 42.8289 21.8231 42.9425 21.87C43.0561 21.9168 43.1594 21.9856 43.2465 22.0723C43.3335 22.1591 43.4026 22.2622 43.4498 22.3756C43.497 22.4891 43.5214 22.6108 43.5216 22.7337C43.5218 22.8566 43.4978 22.9783 43.451 23.0919C43.4041 23.2055 43.3354 23.3088 43.2486 23.3959L38.3914 28.2531C38.3044 28.3408 38.2009 28.4103 38.0869 28.4578C37.9729 28.5052 37.8507 28.5296 37.7272 28.5296Z" fill="#FBAB7E"/>
<path d="M13.0663 34.6208H9.28764C8.43411 34.6208 7.74219 35.3129 7.74219 36.1664V39.945C7.74219 40.7985 8.43411 41.4904 9.28764 41.4904H13.0663C13.9198 41.4904 14.6117 40.7985 14.6117 39.945V36.1664C14.6117 35.3129 13.9198 34.6208 13.0663 34.6208Z" fill="#7E9AFB"/>
<path d="M26.8893 34.6208H23.1106C22.2571 34.6208 21.5652 35.3129 21.5652 36.1664V39.945C21.5652 40.7985 22.2571 41.4904 23.1106 41.4904H26.8893C27.7428 41.4904 28.4347 40.7985 28.4347 39.945V36.1664C28.4347 35.3129 27.7428 34.6208 26.8893 34.6208Z" fill="#7E9AFB"/>
<path d="M40.7122 34.6208H36.9336C36.0801 34.6208 35.3882 35.3129 35.3882 36.1664V39.945C35.3882 40.7985 36.0801 41.4904 36.9336 41.4904H40.7122C41.5658 41.4904 42.2577 40.7985 42.2577 39.945V36.1664C42.2577 35.3129 41.5658 34.6208 40.7122 34.6208Z" fill="#7E9AFB"/>
<path d="M49.0641 25.8459C48.8159 25.8459 48.5779 25.9445 48.4024 26.12C48.2269 26.2955 48.1283 26.5336 48.1283 26.7818V27.1796C48.1283 27.4278 48.2269 27.6659 48.4024 27.8414C48.5779 28.0169 48.8159 28.1155 49.0641 28.1155C49.3123 28.1155 49.5504 28.0169 49.7259 27.8414C49.9014 27.6659 50 27.4278 50 27.1796V26.7818C50 26.5336 49.9014 26.2955 49.7259 26.12C49.5504 25.9445 49.3123 25.8459 49.0641 25.8459Z" fill="#593116"/>
<path d="M43.9679 4.61176V3.42781C43.9655 2.51943 43.6036 1.64895 42.9613 1.00663C42.319 0.364313 41.4485 0.00239957 40.5401 0C39.6313 0.000990835 38.76 0.362452 38.1174 1.00508C37.4748 1.6477 37.1133 2.519 37.1123 3.42781V4.55615H33.6043V3.42781C33.6043 2.51962 33.2439 1.64856 32.6022 1.00587C31.9605 0.363185 31.09 0.00141683 30.1818 0C29.2731 0.00113206 28.4018 0.362639 27.7592 1.00523C27.1166 1.64783 26.7551 2.51904 26.754 3.42781V4.55615H23.246V3.42781C23.246 2.97801 23.1574 2.53262 22.9853 2.11707C22.8131 1.70151 22.5608 1.32393 22.2428 1.00587C21.9247 0.687819 21.5472 0.435526 21.1316 0.263397C20.716 0.0912676 20.2706 0.00267335 19.8209 0.00267335C19.3711 0.00267335 18.9257 0.0912676 18.5101 0.263397C18.0946 0.435526 17.717 0.687819 17.3989 1.00587C17.0809 1.32393 16.8286 1.70151 16.6564 2.11707C16.4843 2.53262 16.3957 2.97801 16.3957 3.42781V4.55615H12.8877V3.42781C12.8853 2.51943 12.5234 1.64895 11.8811 1.00663C11.2387 0.364313 10.3683 0.00239957 9.45989 0C8.55113 0.00113206 7.67991 0.362639 7.03732 1.00523C6.39472 1.64783 6.03322 2.51904 6.03209 3.42781V4.61176C4.36933 4.8168 2.83871 5.62208 1.72792 6.87625C0.617128 8.13042 0.00265698 9.74711 0 11.4225V43.1337C0.00212293 44.9541 0.726217 46.6993 2.01344 47.9866C3.30066 49.2738 5.0459 49.9979 6.86631 50H43.1337C44.9541 49.9979 46.6993 49.2738 47.9866 47.9866C49.2738 46.6993 49.9979 44.9541 50 43.1337V32.7182C50 32.47 49.9014 32.232 49.7259 32.0565C49.5504 31.8809 49.3124 31.7824 49.0642 31.7824C48.816 31.7824 48.5779 31.8809 48.4024 32.0565C48.2269 32.232 48.1283 32.47 48.1283 32.7182V43.1337C48.1268 44.4579 47.6001 45.7274 46.6637 46.6637C45.7274 47.6001 44.4579 48.1268 43.1337 48.1283H6.86631C5.54212 48.1268 4.27262 47.6001 3.33628 46.6637C2.39994 45.7274 1.87321 44.4579 1.87166 43.1337V16.1123H48.1283V21.0588C48.1283 21.307 48.2269 21.5451 48.4024 21.7206C48.5779 21.8961 48.816 21.9947 49.0642 21.9947C49.3124 21.9947 49.5504 21.8961 49.7259 21.7206C49.9014 21.5451 50 21.307 50 21.0588V11.4225C49.9973 9.74711 49.3829 8.13042 48.2721 6.87625C47.1613 5.62208 45.6307 4.8168 43.9679 4.61176ZM38.984 3.42781C38.9845 3.01526 39.1487 2.61978 39.4404 2.32807C39.7321 2.03636 40.1276 1.87222 40.5401 1.87166C40.952 1.87418 41.3464 2.03894 41.6377 2.33023C41.929 2.62152 42.0937 3.01587 42.0963 3.42781V7.55615C42.0963 7.96887 41.9323 8.36468 41.6405 8.65651C41.3486 8.94835 40.9528 9.1123 40.5401 9.1123C40.1274 9.1123 39.7316 8.94835 39.4397 8.65651C39.1479 8.36468 38.984 7.96887 38.984 7.55615V3.42781ZM28.6257 3.42781C28.6261 3.01522 28.7902 2.61966 29.0819 2.32791C29.3737 2.03617 29.7692 1.87208 30.1818 1.87166C30.5937 1.87293 30.9882 2.03746 31.2789 2.32917C31.5696 2.62089 31.7328 3.01597 31.7326 3.42781V7.55615C31.7326 7.96816 31.5689 8.36329 31.2776 8.65462C30.9863 8.94596 30.5911 9.10963 30.1791 9.10963C29.7671 9.10963 29.372 8.94596 29.0807 8.65462C28.7893 8.36329 28.6257 7.96816 28.6257 7.55615V3.42781ZM18.2674 3.42781C18.2674 3.0158 18.431 2.62067 18.7224 2.32933C19.0137 2.038 19.4088 1.87433 19.8209 1.87433C20.2329 1.87433 20.628 2.038 20.9193 2.32933C21.2107 2.62067 21.3743 3.0158 21.3743 3.42781V7.55615C21.3743 7.96816 21.2107 8.36329 20.9193 8.65462C20.628 8.94596 20.2329 9.10963 19.8209 9.10963C19.4088 9.10963 19.0137 8.94596 18.7224 8.65462C18.431 8.36329 18.2674 7.96816 18.2674 7.55615V3.42781ZM7.90374 3.42781C7.90417 3.01522 8.06826 2.61966 8.36 2.32791C8.65174 2.03617 9.04731 1.87208 9.45989 1.87166C9.87183 1.87418 10.2662 2.03894 10.5575 2.33023C10.8488 2.62152 11.0135 3.01587 11.016 3.42781V7.55615C11.016 7.96887 10.8521 8.36468 10.5603 8.65651C10.2684 8.94835 9.87261 9.1123 9.45989 9.1123C9.04718 9.1123 8.65136 8.94835 8.35953 8.65651C8.06769 8.36468 7.90374 7.96887 7.90374 7.55615V3.42781ZM6.03209 6.50321V7.55615C6.03209 8.46526 6.39323 9.33714 7.03607 9.97998C7.67891 10.6228 8.55078 10.984 9.45989 10.984C10.369 10.984 11.2409 10.6228 11.8837 9.97998C12.5266 9.33714 12.8877 8.46526 12.8877 7.55615V6.42781H16.3957V7.55615C16.3957 8.46455 16.7566 9.33575 17.3989 9.97808C18.0413 10.6204 18.9125 10.9813 19.8209 10.9813C20.7293 10.9813 21.6005 10.6204 22.2428 9.97808C22.8851 9.33575 23.246 8.46455 23.246 7.55615V6.42781H26.754V7.55615C26.754 8.46455 27.1149 9.33575 27.7572 9.97808C28.3995 10.6204 29.2707 10.9813 30.1791 10.9813C31.0875 10.9813 31.9587 10.6204 32.6011 9.97808C33.2434 9.33575 33.6043 8.46455 33.6043 7.55615V6.42781H37.1123V7.55615C37.1123 8.46526 37.4734 9.33714 38.1163 9.97998C38.7591 10.6228 39.631 10.984 40.5401 10.984C41.4492 10.984 42.3211 10.6228 42.9639 9.97998C43.6068 9.33714 43.9679 8.46526 43.9679 7.55615V6.50321C45.1302 6.70097 46.1852 7.30316 46.9465 8.20341C47.7078 9.10366 48.1264 10.244 48.1283 11.423V14.2396H1.87166V11.4225C1.87375 10.2436 2.29241 9.10334 3.05369 8.20321C3.81498 7.30307 4.86989 6.70095 6.03209 6.50321Z" fill="#593116"/>
<path d="M15.5476 23.2755C15.5467 22.6177 15.285 21.987 14.8199 21.5219C14.3547 21.0567 13.7241 20.795 13.0663 20.7942H9.28768C8.62986 20.795 7.99923 21.0567 7.53408 21.5219C7.06894 21.987 6.80725 22.6177 6.8064 23.2755V27.0541C6.80725 27.7119 7.06894 28.3425 7.53408 28.8077C7.99923 29.2728 8.62986 29.5345 9.28768 29.5354H13.0663C13.7241 29.5345 14.3547 29.2728 14.8199 28.8077C15.285 28.3425 15.5467 27.7119 15.5476 27.0541V23.2755ZM13.6759 27.0541C13.6758 27.2157 13.6115 27.3707 13.4972 27.485C13.3829 27.5993 13.2279 27.6636 13.0663 27.6637H9.28768C9.12604 27.6636 8.97106 27.5993 8.85677 27.485C8.74247 27.3707 8.6782 27.2157 8.67805 27.0541V23.2755C8.6782 23.1138 8.74247 22.9589 8.85677 22.8446C8.97106 22.7303 9.12604 22.666 9.28768 22.6658H13.0663C13.2279 22.666 13.3829 22.7303 13.4972 22.8446C13.6115 22.9589 13.6758 23.1138 13.6759 23.2755V27.0541Z" fill="#593116"/>
<path d="M29.3706 23.2755C29.3697 22.6177 29.108 21.987 28.6429 21.5219C28.1777 21.0567 27.5471 20.795 26.8893 20.7942H23.1107C22.4529 20.795 21.8222 21.0567 21.3571 21.5219C20.8919 21.987 20.6302 22.6177 20.6294 23.2755V27.0541C20.6302 27.7119 20.8919 28.3425 21.3571 28.8077C21.8222 29.2728 22.4529 29.5345 23.1107 29.5354H26.8893C27.5471 29.5345 28.1777 29.2728 28.6429 28.8077C29.108 28.3425 29.3697 27.7119 29.3706 27.0541V23.2755ZM27.4989 27.0541C27.4988 27.2157 27.4345 27.3707 27.3202 27.485C27.2059 27.5993 27.0509 27.6636 26.8893 27.6637H23.1107C22.949 27.6636 22.7941 27.5993 22.6798 27.485C22.5655 27.3707 22.5012 27.2157 22.5011 27.0541V23.2755C22.5012 23.1138 22.5655 22.9589 22.6798 22.8446C22.7941 22.7303 22.949 22.666 23.1107 22.6658H26.8893C27.0509 22.666 27.2059 22.7303 27.3202 22.8446C27.4345 22.9589 27.4988 23.1138 27.4989 23.2755V27.0541Z" fill="#593116"/>
<path d="M43.2486 22.0742C43.073 21.8988 42.835 21.8003 42.5868 21.8003C42.3387 21.8003 42.1006 21.8988 41.9251 22.0742L37.7272 26.2699L35.7186 24.2614C35.5421 24.091 35.3057 23.9967 35.0603 23.9989C34.815 24.001 34.5803 24.0995 34.4068 24.2731C34.2333 24.4466 34.1349 24.6813 34.1328 24.9267C34.1308 25.1721 34.2251 25.4085 34.3956 25.5849L37.0657 28.255C37.1526 28.3419 37.2557 28.4109 37.3693 28.458C37.4828 28.5051 37.6045 28.5293 37.7275 28.5293C37.8504 28.5293 37.9721 28.5051 38.0857 28.458C38.1992 28.4109 38.3024 28.3419 38.3892 28.255L43.2486 23.3956C43.4236 23.2203 43.5219 22.9827 43.5219 22.7349C43.5219 22.4872 43.4236 22.2496 43.2486 22.0742Z" fill="#593116"/>
<path d="M13.0663 33.6851H9.28768C8.62986 33.6859 7.99923 33.9476 7.53408 34.4127C7.06894 34.8779 6.80725 35.5085 6.8064 36.1663V39.945C6.80725 40.6028 7.06894 41.2334 7.53408 41.6985C7.99923 42.1637 8.62986 42.4254 9.28768 42.4262H13.0663C13.7241 42.4254 14.3547 42.1637 14.8199 41.6985C15.285 41.2334 15.5467 40.6028 15.5476 39.945V36.1663C15.5467 35.5085 15.285 34.8779 14.8199 34.4127C14.3547 33.9476 13.7241 33.6859 13.0663 33.6851ZM13.6759 39.945C13.6758 40.1066 13.6115 40.2616 13.4972 40.3759C13.3829 40.4902 13.2279 40.5544 13.0663 40.5546H9.28768C9.12604 40.5544 8.97106 40.4902 8.85677 40.3759C8.74247 40.2616 8.6782 40.1066 8.67805 39.945V36.1663C8.6782 36.0047 8.74247 35.8497 8.85677 35.7354C8.97106 35.6211 9.12604 35.5569 9.28768 35.5567H13.0663C13.2279 35.5569 13.3829 35.6211 13.4972 35.7354C13.6115 35.8497 13.6758 36.0047 13.6759 36.1663V39.945Z" fill="#593116"/>
<path d="M26.8893 33.6851H23.1107C22.4529 33.6859 21.8222 33.9476 21.3571 34.4127C20.8919 34.8779 20.6302 35.5085 20.6294 36.1663V39.945C20.6302 40.6028 20.8919 41.2334 21.3571 41.6985C21.8222 42.1637 22.4529 42.4254 23.1107 42.4262H26.8893C27.5471 42.4254 28.1777 42.1637 28.6429 41.6985C29.108 41.2334 29.3697 40.6028 29.3706 39.945V36.1663C29.3697 35.5085 29.108 34.8779 28.6429 34.4127C28.1777 33.9476 27.5471 33.6859 26.8893 33.6851ZM27.4989 39.945C27.4988 40.1066 27.4345 40.2616 27.3202 40.3759C27.2059 40.4902 27.0509 40.5544 26.8893 40.5546H23.1107C22.949 40.5544 22.7941 40.4902 22.6798 40.3759C22.5655 40.2616 22.5012 40.1066 22.5011 39.945V36.1663C22.5012 36.0047 22.5655 35.8497 22.6798 35.7354C22.7941 35.6211 22.949 35.5569 23.1107 35.5567H26.8893C27.0509 35.5569 27.2059 35.6211 27.3202 35.7354C27.4345 35.8497 27.4988 36.0047 27.4989 36.1663V39.945Z" fill="#593116"/>
<path d="M36.9337 33.6851C36.2759 33.6859 35.6452 33.9476 35.1801 34.4127C34.7149 34.8779 34.4532 35.5085 34.4524 36.1663V39.945C34.4532 40.6028 34.7149 41.2334 35.1801 41.6985C35.6452 42.1637 36.2759 42.4254 36.9337 42.4262H40.7123C41.3701 42.4254 42.0007 42.1637 42.4659 41.6985C42.931 41.2334 43.1927 40.6028 43.1936 39.945V36.1663C43.1927 35.5085 42.931 34.8779 42.4659 34.4127C42.0007 33.9476 41.3701 33.6859 40.7123 33.6851H36.9337ZM41.3219 36.1663V39.945C41.3218 40.1066 41.2575 40.2616 41.1432 40.3759C41.0289 40.4902 40.8739 40.5544 40.7123 40.5546H36.9337C36.772 40.5544 36.6171 40.4902 36.5028 40.3759C36.3885 40.2616 36.3242 40.1066 36.324 39.945V36.1663C36.3242 36.0047 36.3885 35.8497 36.5028 35.7354C36.6171 35.6211 36.772 35.5569 36.9337 35.5567H40.7123C40.8739 35.5569 41.0289 35.6211 41.1432 35.7354C41.2575 35.8497 41.3218 36.0047 41.3219 36.1663Z" fill="#593116"/>
</svg>
