<svg width="90" height="90" viewBox="0 0 90 90" fill="none" xmlns="http://www.w3.org/2000/svg">
<rect width="90" height="90" rx="20" fill="#F99E81"/>
<g clip-path="url(#clip0)">
<path d="M25 56.6667C25.0026 58.876 25.8815 60.9941 27.4437 62.5563C29.0059 64.1186 31.124 64.9974 33.3333 65H56.6667C58.876 64.9974 60.9941 64.1186 62.5563 62.5563C64.1185 60.9941 64.9974 58.876 65 56.6667V41.6667H25V56.6667ZM53.3333 49.1667C53.8278 49.1667 54.3111 49.3133 54.7223 49.588C55.1334 49.8627 55.4538 50.2532 55.643 50.71C55.8322 51.1668 55.8818 51.6695 55.7853 52.1544C55.6888 52.6394 55.4507 53.0848 55.1011 53.4345C54.7515 53.7841 54.306 54.0222 53.8211 54.1187C53.3361 54.2151 52.8334 54.1656 52.3766 53.9764C51.9198 53.7872 51.5294 53.4667 51.2547 53.0556C50.98 52.6445 50.8333 52.1611 50.8333 51.6667C50.8333 51.0036 51.0967 50.3678 51.5656 49.8989C52.0344 49.4301 52.6703 49.1667 53.3333 49.1667ZM45 49.1667C45.4945 49.1667 45.9778 49.3133 46.3889 49.588C46.8 49.8627 47.1205 50.2532 47.3097 50.71C47.4989 51.1668 47.5484 51.6695 47.452 52.1544C47.3555 52.6394 47.1174 53.0848 46.7678 53.4345C46.4181 53.7841 45.9727 54.0222 45.4877 54.1187C45.0028 54.2151 44.5001 54.1656 44.0433 53.9764C43.5865 53.7872 43.196 53.4667 42.9213 53.0556C42.6466 52.6445 42.5 52.1611 42.5 51.6667C42.5 51.0036 42.7634 50.3678 43.2322 49.8989C43.7011 49.4301 44.337 49.1667 45 49.1667ZM36.6667 49.1667C37.1611 49.1667 37.6445 49.3133 38.0556 49.588C38.4667 49.8627 38.7871 50.2532 38.9764 50.71C39.1656 51.1668 39.2151 51.6695 39.1186 52.1544C39.0222 52.6394 38.7841 53.0848 38.4344 53.4345C38.0848 53.7841 37.6393 54.0222 37.1544 54.1187C36.6694 54.2151 36.1668 54.1656 35.71 53.9764C35.2531 53.7872 34.8627 53.4667 34.588 53.0556C34.3133 52.6445 34.1667 52.1611 34.1667 51.6667C34.1667 51.0036 34.4301 50.3678 34.8989 49.8989C35.3677 49.4301 36.0036 49.1667 36.6667 49.1667V49.1667Z" fill="white"/>
<path d="M56.6667 28.3333H55V26.6667C55 26.2246 54.8244 25.8007 54.5118 25.4882C54.1993 25.1756 53.7754 25 53.3333 25C52.8913 25 52.4674 25.1756 52.1548 25.4882C51.8423 25.8007 51.6667 26.2246 51.6667 26.6667V28.3333H38.3333V26.6667C38.3333 26.2246 38.1577 25.8007 37.8452 25.4882C37.5326 25.1756 37.1087 25 36.6667 25C36.2246 25 35.8007 25.1756 35.4882 25.4882C35.1756 25.8007 35 26.2246 35 26.6667V28.3333H33.3333C31.124 28.336 29.0059 29.2148 27.4437 30.777C25.8815 32.3393 25.0026 34.4573 25 36.6667L25 38.3333H65V36.6667C64.9974 34.4573 64.1185 32.3393 62.5563 30.777C60.9941 29.2148 58.876 28.336 56.6667 28.3333V28.3333Z" fill="white"/>
</g>
<defs>
<clipPath id="clip0">
<rect width="40" height="40" fill="white" transform="translate(25 25)"/>
</clipPath>
</defs>
</svg>
