<svg width="50" height="50" viewBox="0 0 50 50" fill="none" xmlns="http://www.w3.org/2000/svg">
<path d="M16.5504 42.5657L11.4446 47.5364H7.43518L11.6543 39.3684L16.5504 42.5657Z" fill="white"/>
<path d="M33.4497 42.5657L38.5556 47.5364H42.5649L38.3458 39.3684L33.4497 42.5657Z" fill="white"/>
<path d="M7.09772 4.31579L5.66608 2.88454C5.39672 2.61519 5.03139 2.46387 4.65045 2.46387C4.26952 2.46387 3.90419 2.61519 3.63483 2.88454C3.50141 3.01789 3.39557 3.17622 3.32336 3.35049C3.25116 3.52475 3.21399 3.71154 3.21399 3.90017C3.21399 4.0888 3.25116 4.27559 3.32336 4.44985C3.39557 4.62411 3.50141 4.78244 3.63483 4.91579L5.06608 6.34704L7.09772 4.31579Z" fill="white"/>
<path d="M6.6016 15.986C5.80443 15.3539 5.14995 14.5604 4.6811 13.6575C4.21226 12.7546 3.93966 11.7627 3.88119 10.7471C3.82272 9.7314 3.97971 8.71483 4.34185 7.7641C4.70398 6.81337 5.26309 5.94998 5.98246 5.23058C6.70183 4.51118 7.56521 3.95204 8.51592 3.58987C9.46664 3.22769 10.4832 3.07067 11.4989 3.1291C12.5146 3.18752 13.5064 3.46009 14.4093 3.9289C15.3122 4.39771 16.1058 5.05216 16.7379 5.84931L6.6016 15.986Z" fill="white"/>
<path d="M42.9023 4.31563L44.3336 2.88438C44.603 2.61512 44.9683 2.46387 45.3492 2.46387C45.7301 2.46387 46.0954 2.61512 46.3649 2.88438C46.4983 3.01773 46.6041 3.17606 46.6763 3.35032C46.7485 3.52459 46.7857 3.71137 46.7857 3.90001C46.7857 4.08864 46.7485 4.27542 46.6763 4.44969C46.6041 4.62395 46.4983 4.78228 46.3649 4.91563L44.9336 6.34688L42.9023 4.31563Z" fill="white"/>
<path d="M43.4004 15.986C44.1975 15.3539 44.852 14.5604 45.3209 13.6575C45.7897 12.7546 46.0623 11.7627 46.1208 10.7471C46.1793 9.7314 46.0223 8.71483 45.6601 7.7641C45.298 6.81337 44.7389 5.94998 44.0195 5.23058C43.3001 4.51118 42.4368 3.95204 41.4861 3.58987C40.5353 3.22769 39.5188 3.07067 38.5031 3.1291C37.4874 3.18752 36.4956 3.46009 35.5926 3.9289C34.6897 4.39771 33.8962 5.05216 33.264 5.84931L43.4004 15.986Z" fill="white"/>
<path d="M25 44.4158C36.1374 44.4158 45.166 35.3872 45.166 24.2498C45.166 13.1124 36.1374 4.08374 25 4.08374C13.8626 4.08374 4.83398 13.1124 4.83398 24.2498C4.83398 35.3872 13.8626 44.4158 25 44.4158Z" fill="#1ABC9C"/>
<path d="M25.0001 40.3727C33.9044 40.3727 41.1228 33.1544 41.1228 24.2501C41.1228 15.3458 33.9044 8.12744 25.0001 8.12744C16.0958 8.12744 8.87744 15.3458 8.87744 24.2501C8.87744 33.1544 16.0958 40.3727 25.0001 40.3727Z" fill="white"/>
<path d="M25.0001 26.31C26.1379 26.31 27.0602 25.3877 27.0602 24.2499C27.0602 23.1121 26.1379 22.1897 25.0001 22.1897C23.8623 22.1897 22.9399 23.1121 22.9399 24.2499C22.9399 25.3877 23.8623 26.31 25.0001 26.31Z" fill="#7E9AFB"/>
<path d="M7.2536 32.3013C7.0247 31.7982 6.81493 31.2775 6.6286 30.754C6.56805 30.5831 6.44207 30.4432 6.27838 30.3651C6.11468 30.2871 5.92669 30.2773 5.75575 30.3378C5.58481 30.3984 5.44493 30.5243 5.36687 30.688C5.28882 30.8517 5.27898 31.0397 5.33954 31.2107C5.53798 31.7708 5.76259 32.3278 6.00712 32.8669C6.06163 32.9868 6.1496 33.0885 6.26047 33.1596C6.37133 33.2308 6.50038 33.2685 6.63212 33.2681C6.74639 33.2677 6.85876 33.2388 6.95898 33.1839C7.05921 33.129 7.1441 33.0499 7.20592 32.9538C7.26774 32.8577 7.30452 32.7476 7.31292 32.6336C7.32132 32.5197 7.30106 32.4054 7.25399 32.3013H7.2536Z" fill="black"/>
<path d="M25 41.0547C28.3241 41.0548 31.5736 40.0691 34.3376 38.2223C37.1015 36.3755 39.2557 33.7506 40.5278 30.6795C41.7998 27.6084 42.1326 24.229 41.484 20.9688C40.8354 17.7085 39.2345 14.7138 36.8839 12.3634C34.5333 10.013 31.5384 8.41244 28.2781 7.76414C25.0178 7.11584 21.6385 7.44892 18.5675 8.72127C15.4965 9.99361 12.8718 12.1481 11.0252 14.9122C9.17871 17.6763 8.19334 20.9259 8.19373 24.25C8.19921 28.7055 9.97167 32.9769 13.1223 36.1272C16.273 39.2776 20.5445 41.0496 25 41.0547ZM25 8.80899C28.0536 8.80892 31.0386 9.71432 33.5776 11.4107C36.1166 13.1071 38.0956 15.5183 39.2643 18.3394C40.433 21.1605 40.7389 24.2648 40.1433 27.2597C39.5478 30.2547 38.0775 33.0057 35.9184 35.1651C33.7593 37.3244 31.0084 38.7951 28.0136 39.391C25.0187 39.987 21.9144 39.6815 19.0931 38.5131C16.2719 37.3448 13.8604 35.3661 12.1637 32.8273C10.467 30.2885 9.56122 27.3036 9.56091 24.25C9.56546 20.1567 11.1935 16.2323 14.0879 13.3378C16.9823 10.4434 20.9066 8.81521 25 8.81055V8.80899Z" fill="black"/>
<path d="M47.4696 3.90037C47.4697 3.48103 47.3454 3.07108 47.1125 2.72238C46.8795 2.37369 46.5484 2.10191 46.161 1.94142C45.7736 1.78094 45.3473 1.73895 44.936 1.82079C44.5247 1.90262 44.1469 2.10459 43.8505 2.40115L42.7926 3.45896C41.2354 2.5748 39.4231 2.24818 37.6551 2.53304C35.8871 2.8179 34.2692 3.69721 33.0684 5.02576C30.5137 3.95294 27.7707 3.40036 24.9999 3.40036C22.229 3.40036 19.486 3.95294 16.9313 5.02576C15.7299 3.69744 14.1117 2.8182 12.3436 2.53302C10.5754 2.24784 8.76283 2.57375 7.20475 3.45701L6.15006 2.40232C5.75249 2.0047 5.21326 1.7813 4.65098 1.78127C4.0887 1.78123 3.54943 2.00456 3.15182 2.40213C2.7542 2.79969 2.5308 3.33893 2.53076 3.90121C2.53073 4.46349 2.75405 5.00275 3.15162 5.40037L4.20631 6.45505C3.32293 8.01307 2.99692 9.82563 3.28203 11.5938C3.56714 13.362 4.44635 14.9802 5.77467 16.1816C4.69959 18.7355 4.1473 21.479 4.15045 24.25C4.15009 25.3677 4.23904 26.4836 4.41646 27.5871C4.44768 27.7639 4.5472 27.9213 4.69351 28.0253C4.83983 28.1294 5.0212 28.1717 5.19845 28.1431C5.37569 28.1145 5.53458 28.0174 5.64079 27.8726C5.747 27.7279 5.792 27.5472 5.76607 27.3695C4.99695 22.6321 6.0033 17.7774 8.59221 13.7361C11.1811 9.69475 15.1705 6.75104 19.7956 5.4692C24.4207 4.18736 29.3562 4.65757 33.6561 6.7897C37.956 8.92183 41.3177 12.5659 43.0969 17.0234C44.8762 21.4809 44.9477 26.4382 43.2979 30.9452C41.648 35.4522 38.3929 39.1917 34.1563 41.4471C29.9198 43.7024 24.9999 44.3148 20.3397 43.167C15.6795 42.0192 11.6069 39.1919 8.9024 35.2269C8.79767 35.0832 8.6411 34.986 8.46587 34.9558C8.29064 34.9255 8.11054 34.9648 7.96373 35.0651C7.81693 35.1654 7.71496 35.319 7.67945 35.4932C7.64394 35.6674 7.67767 35.8486 7.7735 35.9984C8.65199 37.2795 9.67052 38.4586 10.8102 39.514L6.82779 47.2226C6.77398 47.3268 6.74788 47.4431 6.752 47.5603C6.75613 47.6776 6.79034 47.7917 6.85135 47.8919C6.91236 47.9921 6.99811 48.0749 7.10037 48.1323C7.20262 48.1897 7.31793 48.2199 7.43522 48.2199H11.4454C11.6237 48.2194 11.7948 48.1493 11.9223 48.0246L16.7047 43.3687C19.3224 44.5086 22.1468 45.0969 25.0018 45.0969C27.8569 45.0969 30.6813 44.5086 33.2989 43.3687L38.0794 48.0226C38.2068 48.1474 38.378 48.2174 38.5563 48.2179H42.5657C42.683 48.218 42.7983 48.1878 42.9006 48.1304C43.0028 48.073 43.0886 47.9902 43.1496 47.89C43.2106 47.7898 43.2447 47.6756 43.2488 47.5584C43.2528 47.4411 43.2266 47.3248 43.1727 47.2207L39.1883 39.5066C42.3186 36.604 44.4808 32.809 45.3817 28.6362C46.2826 24.4634 45.8786 20.1144 44.2247 16.1789C45.0204 15.4565 45.6616 14.5805 46.1094 13.6035C46.1819 13.4389 46.1865 13.2524 46.1225 13.0844C46.0584 12.9164 45.9308 12.7803 45.7672 12.7057C45.6036 12.6311 45.4172 12.6239 45.2483 12.6857C45.0794 12.7475 44.9417 12.8733 44.8649 13.0359C44.5538 13.7126 44.1299 14.3314 43.6114 14.866C41.5938 10.8875 38.3608 7.65542 34.3817 5.63904C35.2785 4.77071 36.4054 4.17776 37.6289 3.93048C38.8524 3.68321 40.1212 3.792 41.2848 4.24394C42.4484 4.69588 43.4579 5.47203 44.1938 6.48033C44.9296 7.48864 45.3609 8.68682 45.4364 9.93279C45.4468 10.1066 45.5232 10.2698 45.6498 10.3892C45.7765 10.5086 45.944 10.5752 46.118 10.5754H46.1598C46.2495 10.57 46.3371 10.547 46.4179 10.5077C46.4986 10.4685 46.5708 10.4137 46.6304 10.3465C46.6899 10.2793 46.7357 10.2011 46.765 10.1162C46.7943 10.0314 46.8066 9.94155 46.8012 9.85193C46.7287 8.65769 46.3835 7.49595 45.7923 6.45584L46.8469 5.40115C47.0449 5.20467 47.2019 4.97083 47.3088 4.7132C47.4157 4.45558 47.4703 4.17929 47.4696 3.90037ZM4.11803 4.4324C4.04805 4.36255 3.99253 4.2796 3.95465 4.18827C3.91677 4.09694 3.89727 3.99904 3.89727 3.90017C3.89727 3.8013 3.91677 3.7034 3.95465 3.61208C3.99253 3.52075 4.04805 3.43779 4.11803 3.36795C4.26149 3.23091 4.45225 3.15444 4.65064 3.15444C4.84904 3.15444 5.0398 3.23091 5.18326 3.36795L6.05709 4.24177C5.66917 4.56214 5.31261 4.91869 4.99225 5.30662L4.11803 4.4324ZM6.38912 14.8683C5.19777 13.6378 4.53786 11.9883 4.55172 10.2756C4.56558 8.56286 5.2521 6.92423 6.4632 5.71312C7.67431 4.50202 9.31294 3.8155 11.0256 3.80164C12.7384 3.78778 14.3879 4.44769 15.6184 5.63904C11.6391 7.65621 8.40629 10.8891 6.38912 14.8683ZM11.1669 46.8527H8.55787L11.8712 40.4379C12.9616 41.3238 14.1388 42.0973 15.3848 42.7465L11.1669 46.8527ZM41.4423 46.8527H38.8333L34.6114 42.7426C35.858 42.093 37.0358 41.3193 38.127 40.4332L41.4423 46.8527ZM45.8821 4.43279L45.004 5.31248C44.6835 4.92451 44.327 4.56784 43.9391 4.24724L44.8169 3.36951C44.9603 3.23247 45.1511 3.156 45.3495 3.156C45.5479 3.156 45.7386 3.23247 45.8821 3.36951C46.0232 3.51079 46.1024 3.70228 46.1024 3.90193C46.1024 4.10158 46.0232 4.29307 45.8821 4.43435V4.43279Z" fill="black"/>
<path d="M25 12.9273C25.1813 12.9273 25.3552 12.8553 25.4834 12.7271C25.6116 12.5989 25.6836 12.4251 25.6836 12.2438V10.7676C25.6836 10.5863 25.6116 10.4124 25.4834 10.2842C25.3552 10.156 25.1813 10.084 25 10.084C24.8187 10.084 24.6448 10.156 24.5166 10.2842C24.3884 10.4124 24.3164 10.5863 24.3164 10.7676V12.2438C24.3164 12.4251 24.3884 12.5989 24.5166 12.7271C24.6448 12.8553 24.8187 12.9273 25 12.9273Z" fill="black"/>
<path d="M25 35.5723C24.8187 35.5723 24.6448 35.6443 24.5166 35.7725C24.3884 35.9007 24.3164 36.0746 24.3164 36.2559V37.732C24.3164 37.9133 24.3884 38.0872 24.5166 38.2154C24.6448 38.3436 24.8187 38.4156 25 38.4156C25.1813 38.4156 25.3552 38.3436 25.4834 38.2154C25.6116 38.0872 25.6836 37.9133 25.6836 37.732V36.2559C25.6836 36.0746 25.6116 35.9007 25.4834 35.7725C25.3552 35.6443 25.1813 35.5723 25 35.5723Z" fill="black"/>
<path d="M37.0059 24.9336H38.4824C38.6637 24.9336 38.8376 24.8616 38.9658 24.7334C39.094 24.6052 39.166 24.4313 39.166 24.25C39.166 24.0687 39.094 23.8948 38.9658 23.7666C38.8376 23.6384 38.6637 23.5664 38.4824 23.5664H37.0059C36.8246 23.5664 36.6507 23.6384 36.5225 23.7666C36.3943 23.8948 36.3223 24.0687 36.3223 24.25C36.3223 24.4313 36.3943 24.6052 36.5225 24.7334C36.6507 24.8616 36.8246 24.9336 37.0059 24.9336Z" fill="black"/>
<path d="M12.9941 23.5664H11.5176C11.3363 23.5664 11.1624 23.6384 11.0342 23.7666C10.906 23.8948 10.834 24.0687 10.834 24.25C10.834 24.4313 10.906 24.6052 11.0342 24.7334C11.1624 24.8616 11.3363 24.9336 11.5176 24.9336H12.9941C13.1754 24.9336 13.3493 24.8616 13.4775 24.7334C13.6057 24.6052 13.6777 24.4313 13.6777 24.25C13.6777 24.0687 13.6057 23.8948 13.4775 23.7666C13.3493 23.6384 13.1754 23.5664 12.9941 23.5664Z" fill="black"/>
<path d="M19.0106 30.923C19.1001 30.9229 19.1887 30.9052 19.2714 30.8708C19.354 30.8364 19.4291 30.7861 19.4922 30.7227L23.6055 26.6094C23.9434 26.8088 24.3201 26.9335 24.7102 26.9748C25.1003 27.0161 25.4948 26.9732 25.8669 26.849C26.239 26.7247 26.5801 26.522 26.8672 26.2546C27.1542 25.9872 27.3805 25.6612 27.5307 25.2988C27.6809 24.9364 27.7516 24.5459 27.7379 24.1539C27.7242 23.7618 27.6265 23.3772 27.4514 23.0262C27.2763 22.6751 27.0279 22.3657 26.7229 22.1189C26.4179 21.8721 26.0635 21.6937 25.6837 21.5957V15.7812C25.6837 15.5999 25.6116 15.4261 25.4834 15.2979C25.3552 15.1697 25.1814 15.0977 25.0001 15.0977C24.8188 15.0977 24.6449 15.1697 24.5167 15.2979C24.3885 15.4261 24.3165 15.5999 24.3165 15.7812V21.5977C23.9044 21.7025 23.5224 21.9021 23.2009 22.1805C22.8795 22.4588 22.6273 22.8083 22.4646 23.2012C22.3019 23.5941 22.2331 24.0195 22.2635 24.4436C22.294 24.8678 22.423 25.279 22.6403 25.6445L18.5274 29.7559C18.4319 29.8515 18.3669 29.9733 18.3406 30.1059C18.3143 30.2384 18.3278 30.3758 18.3795 30.5007C18.4312 30.6256 18.5188 30.7323 18.6311 30.8075C18.7434 30.8827 18.8755 30.9229 19.0106 30.923ZM25.0001 22.8734C25.2723 22.8734 25.5385 22.954 25.7649 23.1052C25.9914 23.2564 26.1679 23.4714 26.2721 23.7229C26.3764 23.9745 26.4037 24.2513 26.3506 24.5183C26.2975 24.7854 26.1665 25.0307 25.974 25.2232C25.7815 25.4158 25.5362 25.5469 25.2691 25.6001C25.0021 25.6532 24.7253 25.626 24.4738 25.5218C24.2222 25.4176 24.0072 25.2412 23.8559 25.0148C23.7046 24.7884 23.6239 24.5223 23.6239 24.25C23.6243 23.8851 23.7694 23.5353 24.0274 23.2772C24.2854 23.0192 24.6352 22.874 25.0001 22.8734Z" fill="black"/>
</svg>
