<svg width="90" height="90" viewBox="0 0 90 90" fill="none" xmlns="http://www.w3.org/2000/svg">
<rect width="90" height="90" rx="20" fill="#DBE8CA"/>
<g clip-path="url(#clip0)">
<path d="M45 25.07C40.5899 25.0749 36.3618 26.8288 33.2432 29.9471C30.1246 33.0653 28.3703 37.2932 28.365 41.7033C28.365 45.9867 31.6817 52.69 38.2233 61.6267C39.0021 62.6936 40.0218 63.5615 41.1993 64.1598C42.3769 64.7582 43.6791 65.0701 45 65.0701C46.3209 65.0701 47.6231 64.7582 48.8007 64.1598C49.9782 63.5615 50.9979 62.6936 51.7767 61.6267C58.3183 52.69 61.635 45.9867 61.635 41.7033C61.6297 37.2932 59.8753 33.0653 56.7568 29.9471C53.6382 26.8288 49.4101 25.0749 45 25.07V25.07ZM45 48.3333C43.6814 48.3333 42.3925 47.9423 41.2962 47.2098C40.1999 46.4773 39.3454 45.4361 38.8408 44.2179C38.3362 42.9997 38.2042 41.6593 38.4614 40.3661C38.7187 39.0729 39.3536 37.885 40.2859 36.9526C41.2183 36.0203 42.4062 35.3853 43.6994 35.1281C44.9926 34.8709 46.333 35.0029 47.5512 35.5075C48.7694 36.0121 49.8106 36.8665 50.5431 37.9629C51.2757 39.0592 51.6667 40.3481 51.6667 41.6667C51.6667 43.4348 50.9643 45.1305 49.714 46.3807C48.4638 47.631 46.7681 48.3333 45 48.3333Z" fill="white"/>
</g>
<defs>
<clipPath id="clip0">
<rect width="40" height="40" fill="white" transform="translate(25 25)"/>
</clipPath>
</defs>
</svg>
