<svg width="50" height="50" viewBox="0 0 50 50" fill="none" xmlns="http://www.w3.org/2000/svg">
<path d="M2.73438 20.1172H47.2656V47.2656H2.73438V20.1172Z" fill="#1ABC9C"/>
<path d="M41.1719 15.3516L47.2656 20.1172L29.8828 33.6719H20.1172L2.73438 20.1172L8.82812 15.3516H41.1719Z" fill="#13816B"/>
<path d="M8.82812 24.8828V2.73438H41.1719V24.8828L29.8828 33.6719H20.1172L8.82812 24.8828Z" fill="white"/>
<path d="M15.625 46.5625H13.8672C13.4766 46.5625 13.1641 46.875 13.1641 47.2656C13.1641 47.6562 13.4766 47.9688 13.8672 47.9688H15.625C16.0156 47.9688 16.3281 47.6562 16.3281 47.2656C16.3281 46.875 15.9766 46.5625 15.625 46.5625Z" fill="black"/>
<path d="M47.6953 19.5703L41.8359 15V11.4062C41.8359 11.0156 41.5234 10.7031 41.1328 10.7031C40.7422 10.7031 40.4297 11.0156 40.4297 11.4062V24.5312L29.6484 33.0078H20.3516L9.53125 24.5312V3.39844H40.4688V7.77344C40.4688 8.16406 40.7813 8.47656 41.1719 8.47656C41.5625 8.47656 41.875 8.16406 41.875 7.77344V2.73437C41.875 2.34375 41.5625 2.03125 41.1719 2.03125H8.82813C8.4375 2.03125 8.125 2.34375 8.125 2.73437V15L2.26563 19.5703C2.10938 19.6875 1.99219 19.8828 1.99219 20.1172V47.2656C1.99219 47.6562 2.30469 47.9687 2.69531 47.9687H10.1953C10.5859 47.9687 10.8984 47.6562 10.8984 47.2656C10.8984 46.875 10.5859 46.5625 10.1953 46.5625H4.72656L20.3516 34.3359H29.6094L45.2344 46.5625H19.375C18.9844 46.5625 18.6719 46.875 18.6719 47.2656C18.6719 47.6562 18.9844 47.9687 19.375 47.9687H47.2656C47.6563 47.9687 47.9688 47.6562 47.9688 47.2656V20.1172C47.9688 19.9219 47.8516 19.6875 47.6953 19.5703ZM46.6016 21.5234V45.8594L30.9766 33.6719L46.6016 21.5234ZM41.8359 16.7578L46.1328 20.1172L41.8359 23.4766V16.7578ZM3.4375 21.5234L19.0234 33.7109L3.4375 45.8594V21.5234ZM8.16406 23.4766L3.86719 20.1172L8.16406 16.7578V23.4766Z" fill="black"/>
</svg>
