<svg width="90" height="90" viewBox="0 0 90 90" fill="none" xmlns="http://www.w3.org/2000/svg">
<rect width="90" height="90" rx="20" fill="#F1DFBB"/>
<g clip-path="url(#clip0)">
<path d="M64.9233 34.2367L50.8933 48.2667C49.329 49.8271 47.2096 50.7034 45 50.7034C42.7904 50.7034 40.671 49.8271 39.1067 48.2667L25.0767 34.2367C25.0533 34.5 25 34.7383 25 35V55C25.0026 57.2093 25.8815 59.3274 27.4437 60.8896C29.0059 62.4519 31.124 63.3307 33.3333 63.3333H56.6667C58.876 63.3307 60.9941 62.4519 62.5563 60.8896C64.1185 59.3274 64.9974 57.2093 65 55V35C65 34.7383 64.9467 34.5 64.9233 34.2367Z" fill="white"/>
<path d="M48.5367 45.91L63.76 30.685C63.0225 29.4622 61.9824 28.4501 60.7399 27.7462C59.4975 27.0424 58.0946 26.6706 56.6667 26.6667H33.3333C31.9054 26.6706 30.5025 27.0424 29.26 27.7462C28.0176 28.4501 26.9775 29.4622 26.24 30.685L41.4633 45.91C42.4026 46.8455 43.6743 47.3708 45 47.3708C46.3257 47.3708 47.5974 46.8455 48.5367 45.91V45.91Z" fill="white"/>
</g>
<defs>
<clipPath id="clip0">
<rect width="40" height="40" fill="white" transform="translate(25 25)"/>
</clipPath>
</defs>
</svg>
