<svg width="24" height="24" viewBox="0 0 24 24" fill="none" xmlns="http://www.w3.org/2000/svg">
<path d="M17.3171 15.0877C16.9529 14.5442 16.4545 13.8 16.4545 11.6818V10.7273C16.4545 8.71342 15.1103 7.00962 13.2727 6.46037V6.27274C13.2727 5.57079 12.7016 5 12 5C11.2984 5 10.7273 5.57079 10.7273 6.27274V6.46037C8.8898 7.00962 7.54544 8.71342 7.54544 10.7273V11.6818C7.54544 13.8 7.04705 14.5442 6.68286 15.0877C6.47218 15.4024 6.27271 15.6998 6.27271 16.1364C6.27271 17.1737 8.4352 17.5377 10.1885 17.6631C10.4343 18.4501 11.1559 19 12 19C12.8441 19 13.5657 18.4501 13.8115 17.6631C15.5648 17.5377 17.7273 17.1737 17.7273 16.1364C17.7273 15.6998 17.5278 15.4024 17.3171 15.0877ZM11.3636 6.27274C11.3636 5.92194 11.6489 5.63638 12 5.63638C12.3511 5.63638 12.6364 5.92191 12.6364 6.27274V6.32357C12.4279 6.29356 12.2166 6.27274 12 6.27274C11.7834 6.27274 11.5721 6.29356 11.3637 6.32357V6.27274H11.3636ZM12 18.3636C11.5244 18.3636 11.1067 18.1012 10.8897 17.703C11.3406 17.722 11.7321 17.7273 12 17.7273C12.268 17.7273 12.6595 17.722 13.1104 17.703C12.8933 18.1012 12.4756 18.3636 12 18.3636ZM12 17.0909C9.08602 17.0909 6.90909 16.5869 6.90909 16.1364C6.90909 15.9036 7.00729 15.7467 7.21174 15.4419C7.59764 14.8652 8.18183 13.9936 8.18183 11.6818V10.7273C8.18183 8.62182 9.89455 6.90909 12 6.90909C14.1055 6.90909 15.8182 8.62182 15.8182 10.7273V11.6818C15.8182 13.9936 16.4023 14.8652 16.7883 15.4419C16.9927 15.7467 17.0909 15.9036 17.0909 16.1364C17.0909 16.5869 14.914 17.0909 12 17.0909Z" fill="black"/>
<circle cx="12" cy="12" r="11.6" stroke="black" stroke-width="0.8"/>
</svg>
