<svg id="Capa_1" enable-background="new 0 0 512 512" height="512" viewBox="0 0 512 512" width="512" xmlns="http://www.w3.org/2000/svg" xmlns:xlink="http://www.w3.org/1999/xlink"><linearGradient id="SVGID_1_" gradientUnits="userSpaceOnUse" x1="256" x2="256" y1="491" y2="15"><stop offset="0" stop-color="#c3ffe8"/><stop offset=".9973" stop-color="#f0fff4"/></linearGradient><linearGradient id="SVGID_2_" gradientUnits="userSpaceOnUse" x1="256" x2="256" y1="512" y2="0"><stop offset="0" stop-color="#00b59c"/><stop offset="1" stop-color="#9cffac"/></linearGradient><g><path d="m256 15c-88.366 0-160 71.634-160 160s71.634 160 160 160 160-71.634 160-160-71.634-160-160-160zm60 367c-24.507 0-46.306 11.814-60 30.047-13.694-18.233-35.493-30.047-60-30.047h-160c-8.284 0-15 6.716-15 15v60h155c26.612 0 52.032 12.71 68 34h24c15.968-21.29 41.388-34 68-34h155v-60c0-8.284-6.716-15-15-15z" fill="url(#SVGID_1_)"/><path d="m497 442h-161c-29.917 0-58.722 11.873-80 32.413-21.278-20.54-50.083-32.413-80-32.413h-161c-8.284 0-15 6.716-15 15s6.716 15 15 15h161c26.612 0 52.032 12.71 68 34 6 8 18 8 24 0 15.968-21.29 41.388-34 68-34h161c8.284 0 15-6.716 15-15s-6.716-15-15-15zm-241-92c-96.495 0-175-78.505-175-175s78.505-175 175-175 175 78.505 175 175-78.505 175-175 175zm0-320c-79.953 0-145 65.047-145 145s65.047 145 145 145 145-65.047 145-145-65.047-145-145-145zm15 45c0 8.284-6.716 15-15 15s-15-6.716-15-15 6.716-15 15-15 15 6.716 15 15zm-15 215c-8.284 0-15-6.716-15-15v-140c0-8.284 6.716-15 15-15s15 6.716 15 15v140c0 8.284-6.716 15-15 15z" fill="url(#SVGID_2_)"/></g></svg>