<svg width="24" height="24" viewBox="0 0 24 24" fill="none" xmlns="http://www.w3.org/2000/svg">
<circle cx="12" cy="12" r="11.75" stroke="black" stroke-width="0.5"/>
<path d="M17.8318 6.27308C17.7013 6.16429 17.5216 6.13598 17.3639 6.19932L5.54467 10.9699C5.42513 11.0182 5.3674 11.1543 5.41572 11.2739C5.46405 11.3934 5.60016 11.4511 5.7197 11.4028L17.0106 6.84695L11.4097 13.4527C11.3264 13.5511 11.3386 13.6983 11.4369 13.7817C11.5353 13.865 11.6825 13.8528 11.7659 13.7545L17.4514 7.04834L16.6916 10.8625L15.9261 15.9773C15.9156 16.0489 15.8725 16.1116 15.8094 16.147C15.7489 16.1807 15.676 16.1841 15.6127 16.1561L12.4302 14.9047L10.9031 14.2653C10.7842 14.2155 10.6475 14.2713 10.5976 14.3902C10.5925 14.4062 10.5892 14.4227 10.5878 14.4394H10.5822L9.82395 17.3673L8.73599 13.5669L14.4069 9.34287C14.4794 9.29526 14.5195 9.21141 14.511 9.1251C14.5026 9.03879 14.447 8.96429 14.3667 8.93164C14.2863 8.89898 14.1945 8.91356 14.1282 8.96949L8.42819 13.2133L4.31948 11.55C4.20024 11.5028 4.0652 11.5605 4.01709 11.6795C3.96899 11.7984 4.02587 11.9338 4.14445 11.9827L8.2751 13.6541L9.37659 17.4996C9.43394 17.6982 9.61605 17.8347 9.8228 17.834H9.82816C9.94087 17.832 10.0489 17.7885 10.1315 17.7119C10.1397 17.707 10.1475 17.7016 10.1549 17.6956L12.4106 15.389L15.4351 16.5883C15.6294 16.6709 15.8512 16.6584 16.0351 16.5547C16.2246 16.4496 16.3546 16.2624 16.3868 16.048L17.1501 10.9428L17.9903 6.72793C18.0252 6.5587 17.9643 6.38395 17.8318 6.27308ZM10.4781 16.6991L10.9708 14.8002L11.7423 15.1241L11.9411 15.2029L10.4781 16.6991Z" fill="black"/>
</svg>
