<svg width="316" height="180" viewBox="0 0 316 180" fill="none" xmlns="http://www.w3.org/2000/svg">
<rect width="316" height="180" fill="#1ABC9C"/>
<path d="M158.007 69.9999C161.674 69.9999 164.674 72.9999 164.674 76.6666C164.674 80.3333 161.674 83.3333 158.007 83.3333C154.341 83.3333 151.341 80.3333 151.341 76.6666C151.341 72.9999 154.341 69.9999 158.007 69.9999ZM158.007 103.333C167.007 103.333 177.341 107.633 178.007 110H138.007C138.774 107.6 149.041 103.333 158.007 103.333ZM158.007 63.3333C150.641 63.3333 144.674 69.2999 144.674 76.6666C144.674 84.0333 150.641 89.9999 158.007 89.9999C165.374 89.9999 171.341 84.0333 171.341 76.6666C171.341 69.2999 165.374 63.3333 158.007 63.3333ZM158.007 96.6666C149.107 96.6666 131.341 101.133 131.341 110V116.667H184.674V110C184.674 101.133 166.907 96.6666 158.007 96.6666Z" fill="white"/>
</svg>
