<svg width="40" height="40" viewBox="0 0 40 40" fill="none" xmlns="http://www.w3.org/2000/svg">
<path d="M1.42432 31.5003V30.094C1.42432 29.949 1.48193 29.8099 1.58449 29.7073C1.68705 29.6047 1.82615 29.5471 1.97119 29.5471C2.11623 29.5471 2.25533 29.6047 2.35789 29.7073C2.46045 29.8099 2.51807 29.949 2.51807 30.094V31.5003C2.51807 31.6453 2.46045 31.7844 2.35789 31.887C2.25533 31.9895 2.11623 32.0471 1.97119 32.0471C1.82615 32.0471 1.68705 31.9895 1.58449 31.887C1.48193 31.7844 1.42432 31.6453 1.42432 31.5003ZM37.4824 7.16588V5.4965H31.0203V7.92807C31.0203 8.07311 30.9626 8.21221 30.8601 8.31477C30.7575 8.41732 30.6184 8.47494 30.4734 8.47494H28.1415C28.0697 8.47498 27.9985 8.46087 27.9322 8.4334C27.8658 8.40593 27.8055 8.36565 27.7547 8.31486C27.7039 8.26407 27.6636 8.20376 27.6362 8.1374C27.6087 8.07103 27.5946 7.99989 27.5946 7.92807V5.4965H21.7131V7.92807C21.7131 7.99989 21.699 8.07103 21.6715 8.1374C21.6441 8.20376 21.6038 8.26407 21.553 8.31486C21.5022 8.36565 21.4419 8.40593 21.3755 8.4334C21.3092 8.46087 21.238 8.47498 21.1662 8.47494H18.8343C18.7625 8.47498 18.6914 8.46087 18.625 8.4334C18.5586 8.40593 18.4983 8.36565 18.4475 8.31486C18.3967 8.26407 18.3565 8.20376 18.329 8.1374C18.3015 8.07103 18.2874 7.99989 18.2874 7.92807V5.4965H12.4065V7.92807C12.4065 7.99989 12.3924 8.07103 12.365 8.1374C12.3375 8.20376 12.2972 8.26407 12.2464 8.31486C12.1956 8.36565 12.1353 8.40593 12.069 8.4334C12.0026 8.46087 11.9315 8.47498 11.8596 8.47494H9.52713C9.38209 8.47494 9.24299 8.41732 9.14043 8.31477C9.03787 8.21221 8.98025 8.07311 8.98025 7.92807V5.4965H2.51807V11.7543H37.4824V9.56494C37.4824 9.4199 37.5401 9.2808 37.6426 9.17824C37.7452 9.07568 37.8843 9.01807 38.0293 9.01807C38.1744 9.01807 38.3135 9.07568 38.416 9.17824C38.5186 9.2808 38.5762 9.4199 38.5762 9.56494V38.0293C38.5762 38.1011 38.5621 38.1723 38.5346 38.2386C38.5072 38.305 38.4669 38.3653 38.4161 38.4161C38.3653 38.4669 38.305 38.5072 38.2386 38.5346C38.1723 38.5621 38.1011 38.5762 38.0293 38.5762H1.97119C1.89936 38.5762 1.82823 38.5621 1.76186 38.5346C1.69549 38.5072 1.63519 38.4669 1.5844 38.4161C1.53361 38.3653 1.49333 38.305 1.46586 38.2386C1.43839 38.1723 1.42428 38.1011 1.42432 38.0293V34.0746C1.42432 33.9296 1.48193 33.7905 1.58449 33.6879C1.68705 33.5854 1.82615 33.5278 1.97119 33.5278C2.11623 33.5278 2.25533 33.5854 2.35789 33.6879C2.46045 33.7905 2.51807 33.9296 2.51807 34.0746V37.4824H37.4824V12.8481H2.51807V27.3893C2.51807 27.5344 2.46045 27.6735 2.35789 27.776C2.25533 27.8786 2.11623 27.9362 1.97119 27.9362C1.82615 27.9362 1.68705 27.8786 1.58449 27.776C1.48193 27.6735 1.42432 27.5344 1.42432 27.3893V4.94963C1.42428 4.8778 1.43839 4.80667 1.46586 4.7403C1.49333 4.67393 1.53361 4.61363 1.5844 4.56284C1.63519 4.51205 1.69549 4.47177 1.76186 4.4443C1.82823 4.41683 1.89936 4.40271 1.97119 4.40275H8.98025V1.97119C8.98025 1.82615 9.03787 1.68705 9.14043 1.58449C9.24299 1.48193 9.38209 1.42432 9.52713 1.42432H11.859C11.9308 1.42428 12.002 1.43839 12.0683 1.46586C12.1347 1.49333 12.195 1.53361 12.2458 1.5844C12.2966 1.63519 12.3369 1.69549 12.3643 1.76186C12.3918 1.82823 12.4059 1.89936 12.4059 1.97119V4.40275H18.2874V1.97119C18.2874 1.89936 18.3015 1.82823 18.329 1.76186C18.3565 1.69549 18.3967 1.63519 18.4475 1.5844C18.4983 1.53361 18.5586 1.49333 18.625 1.46586C18.6914 1.43839 18.7625 1.42428 18.8343 1.42432H21.1662C21.238 1.42428 21.3092 1.43839 21.3755 1.46586C21.4419 1.49333 21.5022 1.53361 21.553 1.5844C21.6038 1.63519 21.6441 1.69549 21.6715 1.76186C21.699 1.82823 21.7131 1.89936 21.7131 1.97119V4.40275H27.594V1.97119C27.594 1.89936 27.6081 1.82823 27.6355 1.76186C27.663 1.69549 27.7033 1.63519 27.7541 1.5844C27.8049 1.53361 27.8652 1.49333 27.9316 1.46586C27.9979 1.43839 28.0691 1.42428 28.1409 1.42432H30.4728C30.6178 1.42432 30.7569 1.48193 30.8595 1.58449C30.962 1.68705 31.0196 1.82615 31.0196 1.97119V4.40275H38.0287C38.1005 4.40271 38.1717 4.41683 38.238 4.4443C38.3044 4.47177 38.3647 4.51205 38.4155 4.56284C38.4663 4.61363 38.5066 4.67393 38.534 4.7403C38.5615 4.80667 38.5756 4.8778 38.5756 4.94963V7.16588C38.5756 7.31092 38.5179 7.45002 38.4154 7.55258C38.3128 7.65514 38.1737 7.71275 38.0287 7.71275C37.8837 7.71275 37.7446 7.65514 37.642 7.55258C37.5394 7.45002 37.4818 7.31092 37.4818 7.16588H37.4824ZM11.3128 2.51807H10.074V7.38119H11.3128V2.51807ZM20.6199 2.51807H19.3812V7.38119H20.6193L20.6199 2.51807ZM29.9271 2.51807H28.6878V7.38119H29.9259L29.9271 2.51807ZM6.134 17.8278C6.134 17.3312 6.28124 16.8459 6.55709 16.4331C6.83294 16.0202 7.22502 15.6985 7.68373 15.5085C8.14245 15.3185 8.64721 15.2688 9.13417 15.3657C9.62113 15.4626 10.0684 15.7017 10.4195 16.0528C10.7705 16.4039 11.0096 16.8512 11.1064 17.3382C11.2033 17.8252 11.1535 18.3299 10.9635 18.7886C10.7734 19.2473 10.4516 19.6394 10.0387 19.9152C9.62588 20.191 9.14051 20.3381 8.644 20.3381C7.97849 20.3373 7.34044 20.0726 6.86988 19.602C6.39931 19.1313 6.13467 18.4933 6.134 17.8278V17.8278ZM7.22775 17.8278C7.22775 18.1079 7.31084 18.3818 7.46651 18.6148C7.62218 18.8477 7.84343 19.0293 8.10229 19.1365C8.36116 19.2437 8.64599 19.2718 8.92079 19.2171C9.19558 19.1624 9.44799 19.0274 9.64609 18.8293C9.84419 18.6312 9.97908 18.3787 10.0337 18.1039C10.0883 17.8291 10.0602 17.5443 9.95296 17.2854C9.8457 17.0266 9.66408 16.8054 9.43109 16.6498C9.1981 16.4942 8.92419 16.4111 8.644 16.4112C8.26846 16.4116 7.90843 16.561 7.64291 16.8266C7.37739 17.0921 7.22809 17.4522 7.22775 17.8278V17.8278ZM13.7046 17.8278C13.7046 17.3313 13.8519 16.8459 14.1277 16.4331C14.4035 16.0203 14.7956 15.6985 15.2543 15.5085C15.713 15.3185 16.2177 15.2688 16.7047 15.3657C17.1916 15.4625 17.6389 15.7016 17.99 16.0527C18.3411 16.4038 18.5802 16.8511 18.677 17.338C18.7739 17.825 18.7242 18.3297 18.5342 18.7884C18.3442 19.2471 18.0224 19.6392 17.6096 19.915C17.1968 20.1908 16.7114 20.3381 16.2149 20.3381C15.5494 20.3373 14.9113 20.0726 14.4407 19.602C13.9701 19.1314 13.7054 18.4933 13.7046 17.8278V17.8278ZM14.7984 17.8278C14.7984 18.1079 14.8815 18.3818 15.0371 18.6148C15.1928 18.8477 15.414 19.0293 15.6728 19.1365C15.9317 19.2437 16.2165 19.2718 16.4913 19.2171C16.7661 19.1624 17.0185 19.0275 17.2166 18.8294C17.4147 18.6313 17.5496 18.3789 17.6043 18.1041C17.6589 17.8293 17.6309 17.5445 17.5237 17.2857C17.4165 17.0268 17.2349 16.8056 17.0019 16.6499C16.769 16.4943 16.4951 16.4112 16.2149 16.4112C15.8394 16.4116 15.4793 16.561 15.2137 16.8266C14.9482 17.0921 14.7988 17.4522 14.7984 17.8278V17.8278ZM21.2753 17.8278C21.2753 17.3313 21.4225 16.8459 21.6983 16.4331C21.9742 16.0203 22.3662 15.6985 22.8249 15.5085C23.2836 15.3185 23.7884 15.2688 24.2753 15.3657C24.7623 15.4625 25.2096 15.7016 25.5606 16.0527C25.9117 16.4038 26.1508 16.8511 26.2476 17.338C26.3445 17.825 26.2948 18.3297 26.1048 18.7884C25.9148 19.2471 25.593 19.6392 25.1802 19.915C24.7674 20.1908 24.2821 20.3381 23.7856 20.3381C23.12 20.3373 22.4819 20.0726 22.0113 19.602C21.5407 19.1314 21.276 18.4933 21.2753 17.8278V17.8278ZM22.369 17.8278C22.369 18.1079 22.4521 18.3818 22.6077 18.6148C22.7634 18.8477 22.9846 19.0293 23.2435 19.1365C23.5023 19.2437 23.7871 19.2718 24.0619 19.2171C24.3367 19.1624 24.5891 19.0275 24.7872 18.8294C24.9853 18.6313 25.1203 18.3789 25.1749 18.1041C25.2296 17.8293 25.2015 17.5445 25.0943 17.2857C24.9871 17.0268 24.8055 16.8056 24.5726 16.6499C24.3396 16.4943 24.0657 16.4112 23.7856 16.4112C23.41 16.4115 23.0499 16.5609 22.7843 16.8265C22.5187 17.092 22.3693 17.4522 22.369 17.8278V17.8278ZM28.8462 17.8278C28.8462 17.3313 28.9934 16.8459 29.2693 16.4331C29.5451 16.0203 29.9372 15.6985 30.3959 15.5085C30.8545 15.3185 31.3593 15.2688 31.8462 15.3657C32.3332 15.4625 32.7805 15.7016 33.1316 16.0527C33.4826 16.4038 33.7217 16.8511 33.8186 17.338C33.9154 17.825 33.8657 18.3297 33.6757 18.7884C33.4857 19.2471 33.164 19.6392 32.7512 19.915C32.3383 20.1908 31.853 20.3381 31.3565 20.3381C30.6909 20.3374 30.0528 20.0727 29.5822 19.6021C29.1115 19.1315 28.8469 18.4933 28.8462 17.8278V17.8278ZM29.9399 17.8278C29.9399 18.1079 30.023 18.3818 30.1787 18.6148C30.3343 18.8477 30.5556 19.0293 30.8144 19.1365C31.0733 19.2437 31.3581 19.2718 31.6329 19.2171C31.9076 19.1624 32.1601 19.0275 32.3582 18.8294C32.5563 18.6313 32.6912 18.3789 32.7458 18.1041C32.8005 17.8293 32.7725 17.5445 32.6652 17.2857C32.558 17.0268 32.3765 16.8056 32.1435 16.6499C31.9106 16.4943 31.6367 16.4112 31.3565 16.4112C30.9809 16.4115 30.6208 16.5609 30.3552 16.8265C30.0896 17.092 29.9403 17.4522 29.9399 17.8278V17.8278ZM6.134 25.1653C6.13407 24.6688 6.28135 24.1834 6.55724 23.7707C6.83313 23.3579 7.22523 23.0362 7.68395 22.8462C8.14267 22.6563 8.64742 22.6066 9.13436 22.7036C9.6213 22.8005 10.0686 23.0396 10.4196 23.3907C10.7706 23.7418 11.0097 24.1892 11.1065 24.6761C11.2033 25.1631 11.1535 25.6678 10.9634 26.1265C10.7734 26.5852 10.4516 26.9772 10.0387 27.253C9.62586 27.5288 9.1405 27.6759 8.644 27.6759C7.97846 27.6751 7.34041 27.4103 6.86986 26.9396C6.3993 26.4689 6.13467 25.8308 6.134 25.1653V25.1653ZM7.22775 25.1653C7.22745 25.4455 7.31027 25.7195 7.46575 25.9527C7.62123 26.1859 7.84238 26.3677 8.10121 26.4751C8.36004 26.5826 8.64493 26.6108 8.91983 26.5563C9.19473 26.5018 9.44728 26.367 9.64553 26.1689C9.84379 25.9708 9.97883 25.7184 10.0336 25.4436C10.0883 25.1687 10.0603 24.8838 9.95311 24.6249C9.84589 24.3659 9.66428 24.1446 9.43125 23.9889C9.19822 23.8333 8.92425 23.7502 8.644 23.7503C8.26876 23.7507 7.90901 23.8999 7.64355 24.1652C7.3781 24.4304 7.22858 24.79 7.22775 25.1653V25.1653ZM13.7046 25.1653C13.7047 24.6688 13.852 24.1835 14.1278 23.7707C14.4037 23.3579 14.7958 23.0362 15.2545 22.8462C15.7132 22.6563 16.2179 22.6066 16.7049 22.7035C17.1918 22.8004 17.6391 23.0395 17.9901 23.3906C18.3412 23.7417 18.5802 24.189 18.677 24.6759C18.7739 25.1629 18.7241 25.6676 18.5341 26.1263C18.3441 26.585 18.0224 26.977 17.6096 27.2528C17.1968 27.5287 16.7114 27.6759 16.2149 27.6759C15.5494 27.6751 14.9113 27.4103 14.4407 26.9396C13.9701 26.4689 13.7054 25.8308 13.7046 25.1653V25.1653ZM14.7984 25.1653C14.7981 25.4455 14.8809 25.7195 15.0364 25.9527C15.1918 26.1858 15.4129 26.3676 15.6718 26.4751C15.9306 26.5826 16.2155 26.6108 16.4903 26.5564C16.7652 26.5019 17.0178 26.3671 17.216 26.169C17.4143 25.971 17.5494 25.7186 17.6042 25.4437C17.659 25.1689 17.631 24.884 17.5238 24.6251C17.4167 24.3661 17.2351 24.1448 17.0021 23.9891C16.7691 23.8334 16.4952 23.7503 16.2149 23.7503C15.8397 23.7507 15.4799 23.8999 15.2144 24.1652C14.9489 24.4304 14.7993 24.79 14.7984 25.1653V25.1653ZM21.2753 25.1653C21.2753 24.6688 21.4226 24.1835 21.6985 23.7707C21.9743 23.3579 22.3664 23.0362 22.8251 22.8462C23.2838 22.6563 23.7886 22.6066 24.2755 22.7035C24.7624 22.8004 25.2097 23.0395 25.5607 23.3906C25.9118 23.7417 26.1508 24.189 26.2477 24.6759C26.3445 25.1629 26.2948 25.6676 26.1048 26.1263C25.9148 26.585 25.593 26.977 25.1802 27.2528C24.7674 27.5287 24.282 27.6759 23.7856 27.6759C23.12 27.6751 22.4819 27.4103 22.0113 26.9396C21.5407 26.4689 21.276 25.8308 21.2753 25.1653V25.1653ZM22.369 25.1653C22.3687 25.4455 22.4515 25.7195 22.607 25.9527C22.7624 26.1858 22.9836 26.3676 23.2424 26.4751C23.5012 26.5826 23.7861 26.6108 24.061 26.5564C24.3359 26.5019 24.5884 26.3671 24.7867 26.169C24.9849 25.971 25.12 25.7186 25.1748 25.4437C25.2296 25.1689 25.2016 24.884 25.0944 24.6251C24.9873 24.3661 24.8057 24.1448 24.5727 23.9891C24.3397 23.8334 24.0658 23.7503 23.7856 23.7503C23.4103 23.7507 23.0504 23.8998 22.7849 24.1651C22.5194 24.4303 22.3698 24.79 22.369 25.1653V25.1653ZM28.8462 25.1653C28.8463 24.6688 28.9935 24.1835 29.2694 23.7707C29.5453 23.3579 29.9374 23.0362 30.3961 22.8462C30.8548 22.6563 31.3595 22.6066 31.8464 22.7035C32.3334 22.8004 32.7806 23.0395 33.1317 23.3906C33.4827 23.7417 33.7218 24.189 33.8186 24.6759C33.9154 25.1629 33.8657 25.6676 33.6757 26.1263C33.4857 26.585 33.1639 26.977 32.7511 27.2528C32.3383 27.5287 31.853 27.6759 31.3565 27.6759C30.6909 27.6751 30.0528 27.4104 29.5822 26.9397C29.1115 26.469 28.8469 25.8309 28.8462 25.1653ZM29.9399 25.1653C29.9396 25.4455 30.0225 25.7195 30.1779 25.9527C30.3334 26.1858 30.5545 26.3676 30.8133 26.4751C31.0721 26.5826 31.357 26.6108 31.6319 26.5564C31.9068 26.5019 32.1593 26.3671 32.3576 26.169C32.5559 25.971 32.6909 25.7186 32.7457 25.4437C32.8005 25.1689 32.7726 24.884 32.6654 24.6251C32.5582 24.3661 32.3767 24.1448 32.1437 23.9891C31.9107 23.8334 31.6367 23.7503 31.3565 23.7503C30.9812 23.7507 30.6214 23.8998 30.3559 24.1651C30.0903 24.4303 29.9408 24.79 29.9399 25.1653V25.1653ZM6.134 32.5031C6.134 32.0066 6.28124 31.5212 6.55709 31.1084C6.83294 30.6956 7.22502 30.3738 7.68373 30.1838C8.14245 29.9938 8.64721 29.9441 9.13417 30.041C9.62113 30.1379 10.0684 30.377 10.4195 30.7281C10.7705 31.0792 11.0096 31.5265 11.1064 32.0135C11.2033 32.5005 11.1535 33.0052 10.9635 33.4639C10.7734 33.9226 10.4516 34.3147 10.0387 34.5905C9.62588 34.8663 9.14051 35.0134 8.644 35.0134C7.97849 35.0126 7.34044 34.7479 6.86988 34.2773C6.39931 33.8067 6.13467 33.1686 6.134 32.5031V32.5031ZM7.22775 32.5031C7.22775 32.7833 7.31084 33.0571 7.46651 33.2901C7.62218 33.5231 7.84343 33.7046 8.10229 33.8118C8.36116 33.919 8.64599 33.9471 8.92079 33.8924C9.19558 33.8377 9.44799 33.7028 9.64609 33.5046C9.84419 33.3065 9.97908 33.054 10.0337 32.7792C10.0883 32.5044 10.0602 32.2196 9.95296 31.9608C9.8457 31.7019 9.66408 31.4807 9.43109 31.3251C9.1981 31.1695 8.92419 31.0864 8.644 31.0865C8.26846 31.0869 7.90843 31.2363 7.64291 31.5019C7.37739 31.7675 7.22809 32.1275 7.22775 32.5031V32.5031ZM13.7046 32.5031C13.7046 32.0066 13.8519 31.5212 14.1277 31.1084C14.4035 30.6956 14.7956 30.3738 15.2543 30.1838C15.713 29.9938 16.2177 29.9441 16.7047 30.041C17.1916 30.1378 17.6389 30.3769 17.99 30.728C18.3411 31.0791 18.5802 31.5264 18.677 32.0133C18.7739 32.5003 18.7242 33.005 18.5342 33.4637C18.3442 33.9224 18.0224 34.3145 17.6096 34.5903C17.1968 34.8662 16.7114 35.0134 16.2149 35.0134C15.5494 35.0126 14.9113 34.7479 14.4407 34.2773C13.9701 33.8067 13.7054 33.1686 13.7046 32.5031V32.5031ZM14.7984 32.5031C14.7984 32.7832 14.8815 33.0571 15.0371 33.2901C15.1928 33.523 15.414 33.7046 15.6728 33.8118C15.9317 33.919 16.2165 33.9471 16.4913 33.8924C16.7661 33.8378 17.0185 33.7028 17.2166 33.5047C17.4147 33.3066 17.5496 33.0542 17.6043 32.7794C17.6589 32.5046 17.6309 32.2198 17.5237 31.961C17.4165 31.7021 17.2349 31.4809 17.0019 31.3252C16.769 31.1696 16.4951 31.0865 16.2149 31.0865C15.8394 31.0869 15.4793 31.2363 15.2137 31.5019C14.9482 31.7674 14.7988 32.1275 14.7984 32.5031V32.5031ZM21.2753 32.5031C21.2753 32.0066 21.4225 31.5212 21.6983 31.1084C21.9742 30.6956 22.3662 30.3738 22.8249 30.1838C23.2836 29.9938 23.7884 29.9441 24.2753 30.041C24.7623 30.1378 25.2096 30.3769 25.5606 30.728C25.9117 31.0791 26.1508 31.5264 26.2476 32.0133C26.3445 32.5003 26.2948 33.005 26.1048 33.4637C25.9148 33.9224 25.593 34.3145 25.1802 34.5903C24.7674 34.8662 24.2821 35.0134 23.7856 35.0134C23.12 35.0126 22.4819 34.7479 22.0113 34.2773C21.5407 33.8067 21.276 33.1686 21.2753 32.5031V32.5031ZM22.369 32.5031C22.369 32.7832 22.4521 33.0571 22.6077 33.2901C22.7634 33.523 22.9846 33.7046 23.2435 33.8118C23.5023 33.919 23.7871 33.9471 24.0619 33.8924C24.3367 33.8378 24.5891 33.7028 24.7872 33.5047C24.9853 33.3066 25.1203 33.0542 25.1749 32.7794C25.2296 32.5046 25.2015 32.2198 25.0943 31.961C24.9871 31.7021 24.8055 31.4809 24.5726 31.3252C24.3396 31.1696 24.0657 31.0865 23.7856 31.0865C23.41 31.0868 23.0499 31.2362 22.7843 31.5018C22.5187 31.7674 22.3693 32.1275 22.369 32.5031V32.5031ZM28.8462 32.5031C28.8462 32.0066 28.9934 31.5212 29.2693 31.1084C29.5451 30.6956 29.9372 30.3738 30.3959 30.1838C30.8545 29.9938 31.3593 29.9441 31.8462 30.041C32.3332 30.1378 32.7805 30.3769 33.1316 30.728C33.4826 31.0791 33.7217 31.5264 33.8186 32.0133C33.9154 32.5003 33.8657 33.005 33.6757 33.4637C33.4857 33.9224 33.164 34.3145 32.7512 34.5903C32.3383 34.8662 31.853 35.0134 31.3565 35.0134C30.6909 35.0127 30.0528 34.748 29.5822 34.2774C29.1115 33.8068 28.8469 33.1686 28.8462 32.5031V32.5031ZM29.9399 32.5031C29.9399 32.7832 30.023 33.0571 30.1787 33.2901C30.3343 33.523 30.5556 33.7046 30.8144 33.8118C31.0733 33.919 31.3581 33.9471 31.6329 33.8924C31.9076 33.8378 32.1601 33.7028 32.3582 33.5047C32.5563 33.3066 32.6912 33.0542 32.7458 32.7794C32.8005 32.5046 32.7725 32.2198 32.6652 31.961C32.558 31.7021 32.3765 31.4809 32.1435 31.3252C31.9106 31.1696 31.6367 31.0865 31.3565 31.0865C30.9809 31.0868 30.6208 31.2362 30.3552 31.5018C30.0896 31.7674 29.9403 32.1275 29.9399 32.5031V32.5031Z" fill="url(#paint0_linear)"/>
<defs>
<linearGradient id="paint0_linear" x1="37.6715" y1="39.1609" x2="2.329" y2="3.81838" gradientUnits="userSpaceOnUse">
<stop stop-color="#3EDBFF"/>
<stop offset="1" stop-color="#FC68C0"/>
</linearGradient>
</defs>
</svg>
