<svg width="14" height="14" viewBox="0 0 14 14" fill="none" xmlns="http://www.w3.org/2000/svg">
<path d="M12.25 2.91667C11.6025 2.7125 10.8909 2.625 10.2084 2.625C9.07087 2.625 7.84587 2.85833 7.00004 3.5C6.15421 2.85833 4.92921 2.625 3.79171 2.625C2.65421 2.625 1.42921 2.85833 0.583374 3.5V12.0458C0.583374 12.1917 0.729207 12.3375 0.875041 12.3375C0.933374 12.3375 0.962541 12.3083 1.02087 12.3083C1.80837 11.9292 2.94587 11.6667 3.79171 11.6667C4.92921 11.6667 6.15421 11.9 7.00004 12.5417C7.78754 12.0458 9.21671 11.6667 10.2084 11.6667C11.1709 11.6667 12.1625 11.8417 12.9792 12.2792C13.0375 12.3083 13.0667 12.3083 13.125 12.3083C13.2709 12.3083 13.4167 12.1625 13.4167 12.0167V3.5C13.0667 3.2375 12.6875 3.0625 12.25 2.91667ZM12.25 10.7917C11.6084 10.5875 10.9084 10.5 10.2084 10.5C9.21671 10.5 7.78754 10.8792 7.00004 11.375V4.66667C7.78754 4.17083 9.21671 3.79167 10.2084 3.79167C10.9084 3.79167 11.6084 3.87917 12.25 4.08333V10.7917Z" fill="#FFC42E"/>
</svg>
