<svg width="40" height="40" viewBox="0 0 40 40" fill="none" xmlns="http://www.w3.org/2000/svg">
<g clip-path="url(#clip0)">
<path d="M5.39062 5.44287C5.39062 5.29783 5.44824 5.15873 5.5508 5.05617C5.65336 4.95361 5.79246 4.896 5.9375 4.896H6.64062C6.78567 4.896 6.92476 4.95361 7.02732 5.05617C7.12988 5.15873 7.1875 5.29783 7.1875 5.44287C7.1875 5.58791 7.12988 5.72701 7.02732 5.82957C6.92476 5.93213 6.78567 5.98975 6.64062 5.98975H5.9375C5.79246 5.98975 5.65336 5.93213 5.5508 5.82957C5.44824 5.72701 5.39062 5.58791 5.39062 5.44287V5.44287ZM12.9688 7.90381H4.0625C3.91746 7.90381 3.77836 7.96143 3.6758 8.06399C3.57324 8.16654 3.51562 8.30564 3.51562 8.45068C3.51562 8.59572 3.57324 8.73482 3.6758 8.83738C3.77836 8.93994 3.91746 8.99756 4.0625 8.99756H12.9688C13.1138 8.99756 13.2529 8.93994 13.3554 8.83738C13.458 8.73482 13.5156 8.59572 13.5156 8.45068C13.5156 8.30564 13.458 8.16654 13.3554 8.06399C13.2529 7.96143 13.1138 7.90381 12.9688 7.90381ZM21.875 11.4976H4.0625C3.91746 11.4976 3.77836 11.5552 3.6758 11.6577C3.57324 11.7603 3.51562 11.8994 3.51562 12.0444C3.51562 12.1895 3.57324 12.3286 3.6758 12.4311C3.77836 12.5337 3.91746 12.5913 4.0625 12.5913H21.875C22.02 12.5913 22.1591 12.5337 22.2617 12.4311C22.3643 12.3286 22.4219 12.1895 22.4219 12.0444C22.4219 11.8994 22.3643 11.7603 22.2617 11.6577C22.1591 11.5552 22.02 11.4976 21.875 11.4976V11.4976ZM21.875 15.0913H4.0625C3.91746 15.0913 3.77836 15.1489 3.6758 15.2515C3.57324 15.354 3.51562 15.4931 3.51562 15.6382C3.51562 15.7832 3.57324 15.9223 3.6758 16.0249C3.77836 16.1274 3.91746 16.1851 4.0625 16.1851H21.875C22.02 16.1851 22.1591 16.1274 22.2617 16.0249C22.3643 15.9223 22.4219 15.7832 22.4219 15.6382C22.4219 15.4931 22.3643 15.354 22.2617 15.2515C22.1591 15.1489 22.02 15.0913 21.875 15.0913V15.0913ZM21.875 18.6851H4.0625C3.91746 18.6851 3.77836 18.7427 3.6758 18.8452C3.57324 18.9478 3.51562 19.0869 3.51562 19.2319C3.51562 19.377 3.57324 19.5161 3.6758 19.6186C3.77836 19.7212 3.91746 19.7788 4.0625 19.7788H21.875C22.02 19.7788 22.1591 19.7212 22.2617 19.6186C22.3643 19.5161 22.4219 19.377 22.4219 19.2319C22.4219 19.0869 22.3643 18.9478 22.2617 18.8452C22.1591 18.7427 22.02 18.6851 21.875 18.6851V18.6851ZM35.7075 25.2085C35.7075 25.0635 35.6499 24.9244 35.5473 24.8218C35.4448 24.7192 35.3057 24.6616 35.1606 24.6616H22.8559C22.7109 24.6616 22.5718 24.7192 22.4692 24.8218C22.3667 24.9244 22.3091 25.0635 22.3091 25.2085C22.3091 25.3535 22.3667 25.4926 22.4692 25.5952C22.5718 25.6978 22.7109 25.7554 22.8559 25.7554H35.1606C35.3057 25.7554 35.4448 25.6978 35.5473 25.5952C35.6499 25.4926 35.7075 25.3535 35.7075 25.2085V25.2085ZM38.4022 15.0913H25.9375V6.69287C25.9369 6.21649 25.7474 5.75978 25.4106 5.42293C25.0737 5.08607 24.617 4.89657 24.1406 4.896H8.82812C8.68308 4.896 8.54399 4.95361 8.44143 5.05617C8.33887 5.15873 8.28125 5.29783 8.28125 5.44287C8.28125 5.58791 8.33887 5.72701 8.44143 5.82957C8.54399 5.93213 8.68308 5.98975 8.82812 5.98975H24.1406C24.3271 5.98991 24.5058 6.06404 24.6376 6.19587C24.7695 6.3277 24.8436 6.50644 24.8438 6.69287V20.9897C24.8436 21.1762 24.7695 21.3549 24.6376 21.4868C24.5058 21.6186 24.3271 21.6927 24.1406 21.6929H12.9688C12.8632 21.6928 12.7599 21.7233 12.6713 21.7807L4.71344 26.9376V22.2397C4.71344 22.0947 4.65582 21.9556 4.55326 21.853C4.4507 21.7505 4.3116 21.6929 4.16656 21.6929H1.79688C1.61045 21.6927 1.4317 21.6186 1.29987 21.4868C1.16805 21.3549 1.09392 21.1762 1.09375 20.9897V6.69287C1.09392 6.50644 1.16805 6.3277 1.29987 6.19587C1.4317 6.06404 1.61045 5.98991 1.79688 5.98975H3.75C3.89504 5.98975 4.03414 5.93213 4.1367 5.82957C4.23926 5.72701 4.29688 5.58791 4.29688 5.44287C4.29688 5.29783 4.23926 5.15873 4.1367 5.05617C4.03414 4.95361 3.89504 4.896 3.75 4.896H1.79688C1.32049 4.89657 0.863786 5.08607 0.526932 5.42293C0.190078 5.75978 0.000578888 6.21649 0 6.69287L0 20.9897C0.000578888 21.4661 0.190078 21.9228 0.526932 22.2597C0.863786 22.5965 1.32049 22.786 1.79688 22.7866H3.61969V27.9429C3.62133 28.0405 3.64886 28.136 3.69946 28.2195C3.75007 28.3031 3.82194 28.3717 3.90773 28.4184C3.99353 28.4651 4.09018 28.4881 4.18781 28.4852C4.28544 28.4824 4.38055 28.4536 4.46344 28.4019L13.1306 22.7866H18.0163V28.7107C18.0167 29.1344 18.1851 29.5406 18.4847 29.8402C18.7842 30.1398 19.1904 30.3083 19.6141 30.3088H23.8281C23.9732 30.3088 24.1123 30.2512 24.2148 30.1486C24.3174 30.0461 24.375 29.907 24.375 29.7619C24.375 29.6169 24.3174 29.4778 24.2148 29.3752C24.1123 29.2727 23.9732 29.2151 23.8281 29.2151H19.6141C19.4804 29.2149 19.3522 29.1617 19.2577 29.0671C19.1632 28.9726 19.1101 28.8444 19.11 28.7107V22.7866H35.1606C35.3057 22.7866 35.4448 22.729 35.5473 22.6264C35.6499 22.5239 35.7075 22.3848 35.7075 22.2397C35.7075 22.0947 35.6499 21.9556 35.5473 21.853C35.4448 21.7505 35.3057 21.6929 35.1606 21.6929H25.7941C25.8889 21.4706 25.9377 21.2314 25.9375 20.9897V19.7788H35.1606C35.3057 19.7788 35.4448 19.7212 35.5473 19.6186C35.6499 19.5161 35.7075 19.377 35.7075 19.2319C35.7075 19.0869 35.6499 18.9478 35.5473 18.8452C35.4448 18.7427 35.3057 18.6851 35.1606 18.6851H25.9375V16.1851H38.4022C38.5359 16.1852 38.664 16.2384 38.7585 16.333C38.853 16.4276 38.9062 16.5557 38.9062 16.6894V28.7107C38.9062 28.8444 38.853 28.9726 38.7585 29.0671C38.664 29.1617 38.5359 29.2149 38.4022 29.2151H36.4094C36.2643 29.2151 36.1252 29.2727 36.0227 29.3752C35.9201 29.4778 35.8625 29.6169 35.8625 29.7619V33.5513L29.3056 29.3013C29.217 29.244 29.1137 29.2135 29.0081 29.2135H27.2269C27.0818 29.2135 26.9427 29.2711 26.8402 29.3737C26.7376 29.4762 26.68 29.6153 26.68 29.7604C26.68 29.9054 26.7376 30.0445 26.8402 30.1471C26.9427 30.2496 27.0818 30.3072 27.2269 30.3072H28.8469L36.1125 35.0147C36.1954 35.0663 36.2905 35.095 36.3881 35.0978C36.4857 35.1007 36.5823 35.0776 36.6681 35.0309C36.7538 34.9842 36.8257 34.9157 36.8763 34.8322C36.9269 34.7487 36.9545 34.6533 36.9563 34.5557V30.3057H38.4019C38.8251 30.3053 39.2308 30.1372 39.5304 29.8383C39.8299 29.5393 39.9988 29.1339 40 28.7107V16.6891C39.9995 16.2655 39.831 15.8594 39.5315 15.5598C39.2319 15.2603 38.8258 15.0918 38.4022 15.0913V15.0913Z" fill="url(#paint0_linear)"/>
</g>
<defs>
<linearGradient id="paint0_linear" x1="35.7241" y1="36.0101" x2="2.83187" y2="3.11788" gradientUnits="userSpaceOnUse">
<stop stop-color="#3EDBFF"/>
<stop offset="1" stop-color="#FC68C0"/>
</linearGradient>
<clipPath id="clip0">
<rect width="40" height="40" fill="white"/>
</clipPath>
</defs>
</svg>
