<svg width="40" height="40" viewBox="0 0 40 40" fill="none" xmlns="http://www.w3.org/2000/svg">
<path d="M18.4111 10.4379C18.4856 10.5622 18.5077 10.711 18.4725 10.8517C18.4374 10.9923 18.3478 11.1132 18.2236 11.1879L17.9032 11.3804C17.8416 11.4198 17.7727 11.4464 17.7007 11.4587C17.6286 11.471 17.5547 11.4688 17.4835 11.452C17.4124 11.4353 17.3452 11.4045 17.2862 11.3614C17.2271 11.3182 17.1773 11.2637 17.1397 11.201C17.102 11.1383 17.0774 11.0687 17.0671 10.9963C17.0569 10.9239 17.0612 10.8501 17.08 10.7794C17.0987 10.7088 17.1315 10.6425 17.1763 10.5847C17.2211 10.5269 17.277 10.4787 17.3407 10.4429L17.6611 10.2504C17.7854 10.1758 17.9342 10.1537 18.0749 10.1889C18.2155 10.224 18.3364 10.3136 18.4111 10.4379V10.4379ZM26.7257 19.2035C26.7242 20.1095 26.3975 20.9848 25.805 21.6702C25.2125 22.3556 24.3936 22.8054 23.4973 22.9379V30.701C23.4973 30.7978 23.4716 30.8928 23.4228 30.9764C23.3741 31.06 23.304 31.1292 23.2197 31.1769C23.1355 31.2245 23.0401 31.249 22.9433 31.2477C22.8466 31.2465 22.7518 31.2196 22.6689 31.1697L12.5473 25.0825H11.717V30.5766C11.7164 31.1771 11.4776 31.7528 11.0531 32.1775C10.6285 32.6021 10.0528 32.8409 9.4523 32.8416H9.0998C8.49932 32.8409 7.92363 32.6021 7.49905 32.1775C7.07447 31.7528 6.8357 31.1771 6.83512 30.5766V25.0494C6.30638 24.9614 5.82592 24.6889 5.47906 24.2802C5.13219 23.8716 4.94136 23.3532 4.94043 22.8172V15.59C4.94109 14.9895 5.17997 14.4136 5.60466 13.989C6.02934 13.5643 6.60515 13.3254 7.20574 13.3247H12.5473L14.1561 12.3582C14.2801 12.2885 14.4265 12.2699 14.5641 12.3064C14.7017 12.3429 14.8196 12.4315 14.8928 12.5536C14.9661 12.6756 14.9888 12.8214 14.9563 12.96C14.9237 13.0986 14.8385 13.219 14.7186 13.2957L13.2498 14.1791V24.2282L22.4036 29.7338V8.67317L20.9686 9.53723C20.8445 9.60695 20.6981 9.62553 20.5605 9.58904C20.4229 9.55255 20.305 9.46386 20.2318 9.34181C20.1585 9.21976 20.1358 9.07396 20.1683 8.9354C20.2009 8.79684 20.2861 8.67642 20.4061 8.59973L22.6711 7.23723C22.754 7.1874 22.8487 7.16048 22.9455 7.15923C23.0423 7.15797 23.1377 7.18242 23.2219 7.23009C23.3062 7.27775 23.3762 7.34692 23.425 7.43053C23.4738 7.51414 23.4995 7.60919 23.4995 7.70598V15.4691C24.3953 15.602 25.2137 16.0521 25.8058 16.7374C26.3979 17.4227 26.7243 18.2978 26.7257 19.2035V19.2035ZM10.6232 25.0825H7.92887V30.5766C7.9292 30.8871 8.05266 31.1848 8.27217 31.4043C8.49169 31.6239 8.78933 31.7474 9.0998 31.7479H9.4523C9.76278 31.7474 10.0604 31.6239 10.2799 31.4043C10.4994 31.1848 10.6229 30.8871 10.6232 30.5766V25.0825ZM12.1545 14.4185H7.20574C6.89513 14.4188 6.59733 14.5424 6.37769 14.762C6.15805 14.9816 6.03451 15.2794 6.03418 15.59V22.8172C6.03459 23.1278 6.15816 23.4256 6.37778 23.6452C6.5974 23.8648 6.89515 23.9884 7.20574 23.9888H12.1561L12.1545 14.4185ZM25.632 19.2035C25.6317 18.5869 25.4194 17.9892 25.0308 17.5106C24.6421 17.032 24.1007 16.7016 23.4973 16.5747V21.8322C24.1007 21.7054 24.6421 21.375 25.0308 20.8964C25.4194 20.4177 25.6317 19.82 25.632 19.2035V19.2035ZM28.7317 13.9985C28.6809 13.9477 28.6206 13.9074 28.5542 13.8799C28.4879 13.8524 28.4168 13.8383 28.345 13.8383C28.1999 13.8383 28.0608 13.8959 27.9582 13.9985C27.8557 14.101 27.7981 14.2402 27.7981 14.3852C27.7981 14.5302 27.8557 14.6694 27.9582 14.7719C29.1319 15.9482 29.791 17.542 29.791 19.2036C29.791 20.8653 29.1319 22.4591 27.9582 23.6354C27.906 23.6858 27.8644 23.7462 27.8357 23.8129C27.8071 23.8796 27.792 23.9514 27.7914 24.024C27.7908 24.0966 27.8046 24.1686 27.8321 24.2358C27.8596 24.303 27.9003 24.3641 27.9516 24.4154C28.003 24.4668 28.064 24.5074 28.1313 24.5348C28.1985 24.5623 28.2705 24.5761 28.3431 24.5755C28.4157 24.5749 28.4875 24.5597 28.5542 24.5311C28.6209 24.5024 28.6812 24.4607 28.7317 24.4085C30.1102 23.027 30.8844 21.1551 30.8844 19.2035C30.8844 17.2519 30.1102 15.3799 28.7317 13.9985V13.9985ZM30.7114 11.6447C30.6606 11.6955 30.6202 11.7557 30.5927 11.8221C30.5652 11.8884 30.5511 11.9595 30.5511 12.0313C30.5511 12.1031 30.5652 12.1742 30.5927 12.2405C30.6202 12.3069 30.6606 12.3671 30.7114 12.4179C32.5082 14.219 33.5173 16.6593 33.5173 19.2035C33.5173 21.7477 32.5082 24.188 30.7114 25.9891C30.6088 26.0917 30.5512 26.2308 30.5512 26.3758C30.5512 26.5209 30.6088 26.66 30.7114 26.7625C30.8139 26.8651 30.953 26.9227 31.0981 26.9227C31.2431 26.9227 31.3822 26.8651 31.4848 26.7625C33.4865 24.7562 34.6106 22.0378 34.6106 19.2036C34.6106 16.3695 33.4865 13.6511 31.4848 11.6447C31.434 11.5939 31.3738 11.5536 31.3074 11.5261C31.241 11.4986 31.1699 11.4844 31.0981 11.4844C31.0263 11.4844 30.9551 11.4986 30.8888 11.5261C30.8224 11.5536 30.7621 11.5939 30.7114 11.6447V11.6447Z" fill="url(#paint0_linear)"/>
<defs>
<linearGradient id="paint0_linear" x1="27.9139" y1="30.3332" x2="8.5873" y2="11.0063" gradientUnits="userSpaceOnUse">
<stop stop-color="#3EDBFF"/>
<stop offset="1" stop-color="#FC68C0"/>
</linearGradient>
</defs>
</svg>
