<svg width="278" height="157" viewBox="0 0 278 157" fill="none" xmlns="http://www.w3.org/2000/svg">
<rect width="278" height="157" fill="#EFEFEF"/>
<path d="M139 55C143.4 55 147 58.6 147 63C147 67.4 143.4 71 139 71C134.6 71 131 67.4 131 63C131 58.6 134.6 55 139 55ZM139 95C149.8 95 162.2 100.16 163 103H115C115.92 100.12 128.24 95 139 95ZM139 47C130.16 47 123 54.16 123 63C123 71.84 130.16 79 139 79C147.84 79 155 71.84 155 63C155 54.16 147.84 47 139 47ZM139 87C128.32 87 107 92.36 107 103V111H171V103C171 92.36 149.68 87 139 87Z" fill="white"/>
</svg>
