<svg width="278" height="173" viewBox="0 0 278 173" fill="none" xmlns="http://www.w3.org/2000/svg">
<rect width="278" height="173" fill="#ECECEC"/>
<path d="M139 66.9997C142.667 66.9997 145.667 69.9997 145.667 73.6663C145.667 77.333 142.667 80.333 139 80.333C135.333 80.333 132.333 77.333 132.333 73.6663C132.333 69.9997 135.333 66.9997 139 66.9997ZM139 100.333C148 100.333 158.333 104.633 159 107H119C119.767 104.6 130.033 100.333 139 100.333ZM139 60.333C131.633 60.333 125.667 66.2997 125.667 73.6663C125.667 81.033 131.633 86.9997 139 86.9997C146.367 86.9997 152.333 81.033 152.333 73.6663C152.333 66.2997 146.367 60.333 139 60.333ZM139 93.6663C130.1 93.6663 112.333 98.133 112.333 107V113.666H165.667V107C165.667 98.133 147.9 93.6663 139 93.6663Z" fill="white"/>
</svg>
